<svg xmlns="http://www.w3.org/2000/svg" id="export" class="canvas" preserveAspectRatio="xMidYMid meet" style="" width="174" height="1500"><rect id="background" fill="#fff" pointer-events="all" width="174" height="1500"/><g id="origin" transform="translate(7.89267578125, 7.89267578125) scale(1)"><g id="clusters" class="clusters"/><g id="edge-paths" class="edge-paths" style="pointer-events: none;"><defs><marker id="arrowhead" viewBox="0 0 10 10" refX="9" refY="5" markerUnits="strokeWidth" markerWidth="8" markerHeight="6" orient="auto" style="fill: rgb(0, 0, 0);"><path d="M 0 0 L 10 5 L 0 10 L 4 5 z" style="stroke-width: 1;"/></marker><marker id="arrowhead-select" viewBox="0 0 10 10" refX="9" refY="5" markerUnits="strokeWidth" markerWidth="8" markerHeight="6" orient="auto" style="fill: rgba(220, 0, 0, 0.9);"><path d="M 0 0 L 10 5 L 0 10 L 4 5 z" style="stroke-width: 1;"/></marker><marker id="arrowhead-hover" viewBox="0 0 10 10" refX="9" refY="5" markerUnits="strokeWidth" markerWidth="8" markerHeight="6" orient="auto" style="fill: rgba(220, 0, 0, 0.9);"><path d="M 0 0 L 10 5 L 0 10 L 4 5 z" style="stroke-width: 1;"/></marker></defs><path id="edge-serving_default_input_layer:0&#10;0" class="edge-path" d="M71.08837890625,23L71.08837890625,24.666666666666668C71.08837890625,26.333333333333332,71.08837890625,29.666666666666668,71.08837890625,35C71.08837890625,40.333333333333336,71.08837890625,47.666666666666664,71.08837890625,55C71.08837890625,62.333333333333336,71.08837890625,69.66666666666667,71.08837890625,75C71.08837890625,80.33333333333333,71.08837890625,83.66666666666667,71.08837890625,85.33333333333333L71.08837890625,87" style="stroke: rgb(0, 0, 0); stroke-width: 1px; fill: none; marker-end: url(&quot;#arrowhead&quot;);"/><path id="edge-functional_1/conv1d_1/convolution/ExpandDims&#10;17" class="edge-path" d="M71.08837890625,130L71.08837890625,133.66666666666666C71.08837890625,137.33333333333334,71.08837890625,144.66666666666666,71.08837890625,152C71.08837890625,159.33333333333334,71.08837890625,166.66666666666666,71.08837890625,170.33333333333334L71.08837890625,174" style="stroke: rgb(0, 0, 0); stroke-width: 1px; fill: none; marker-end: url(&quot;#arrowhead&quot;);"/><path id="edge-functional_1/re_lu_1/Relu;functional_1/conv1d_1/BiasAdd;functional_1/conv1d_1/convolution/Squeeze;functional_1/conv1d_1/Squeeze;functional_1/conv1d_1/convolution1&#10;18" class="edge-path" d="M71.08837890625,254L71.08837890625,257.6666666666667C71.08837890625,261.3333333333333,71.08837890625,268.6666666666667,71.08837890625,276C71.08837890625,283.3333333333333,71.08837890625,290.6666666666667,71.08837890625,294.3333333333333L71.08837890625,298" style="stroke: rgb(0, 0, 0); stroke-width: 1px; fill: none; marker-end: url(&quot;#arrowhead&quot;);"/><path id="edge-functional_1/re_lu_1/Relu;functional_1/conv1d_1/BiasAdd;functional_1/conv1d_1/convolution/Squeeze;functional_1/conv1d_1/Squeeze&#10;19" class="edge-path" d="M71.08837890625,341L71.08837890625,344.6666666666667C71.08837890625,348.3333333333333,71.08837890625,355.6666666666667,71.08837890625,363C71.08837890625,370.3333333333333,71.08837890625,377.6666666666667,71.08837890625,381.3333333333333L71.08837890625,385" style="stroke: rgb(0, 0, 0); stroke-width: 1px; fill: none; marker-end: url(&quot;#arrowhead&quot;);"/><path id="edge-functional_1/depthwise_conv1d_1/ExpandDims&#10;20" class="edge-path" d="M71.08837890625,428L71.08837890625,431.6666666666667C71.08837890625,435.3333333333333,71.08837890625,442.6666666666667,71.08837890625,450C71.08837890625,457.3333333333333,71.08837890625,464.6666666666667,71.08837890625,468.3333333333333L71.08837890625,472" style="stroke: rgb(0, 0, 0); stroke-width: 1px; fill: none; marker-end: url(&quot;#arrowhead&quot;);"/><path id="edge-functional_1/re_lu_1_2/Relu;functional_1/depthwise_conv1d_1/BiasAdd;functional_1/depthwise_conv1d_1/Squeeze;functional_1/depthwise_conv1d_1/Squeeze_1;functional_1/depthwise_conv1d_1/depthwise1&#10;21" class="edge-path" d="M71.08837890625,552L71.08837890625,555.6666666666666C71.08837890625,559.3333333333334,71.08837890625,566.6666666666666,71.08837890625,574C71.08837890625,581.3333333333334,71.08837890625,588.6666666666666,71.08837890625,592.3333333333334L71.08837890625,596" style="stroke: rgb(0, 0, 0); stroke-width: 1px; fill: none; marker-end: url(&quot;#arrowhead&quot;);"/><path id="edge-functional_1/re_lu_1_2/Relu;functional_1/depthwise_conv1d_1/BiasAdd;functional_1/depthwise_conv1d_1/Squeeze;functional_1/depthwise_conv1d_1/Squeeze_1&#10;22" class="edge-path" d="M71.08837890625,639L71.08837890625,642.6666666666666C71.08837890625,646.3333333333334,71.08837890625,653.6666666666666,71.08837890625,661C71.08837890625,668.3333333333334,71.08837890625,675.6666666666666,71.08837890625,679.3333333333334L71.08837890625,683" style="stroke: rgb(0, 0, 0); stroke-width: 1px; fill: none; marker-end: url(&quot;#arrowhead&quot;);"/><path id="edge-functional_1/average_pooling1d_1/AvgPool1D/ExpandDims&#10;23" class="edge-path" d="M71.08837890625,726L71.08837890625,729.6666666666666C71.08837890625,733.3333333333334,71.08837890625,740.6666666666666,71.08837890625,748C71.08837890625,755.3333333333334,71.08837890625,762.6666666666666,71.08837890625,766.3333333333334L71.08837890625,770" style="stroke: rgb(0, 0, 0); stroke-width: 1px; fill: none; marker-end: url(&quot;#arrowhead&quot;);"/><path id="edge-functional_1/average_pooling1d_1/AvgPool1D&#10;24" class="edge-path" d="M59.55803987873134,793L55.88169989894279,796.6666666666666C52.205359919154226,800.3333333333334,44.85267995957711,807.6666666666666,41.17633997978856,815C37.5,822.3333333333334,37.5,829.6666666666666,37.5,833.3333333333334L37.5,837" style="stroke: rgb(0, 0, 0); stroke-width: 1px; fill: none; marker-end: url(&quot;#arrowhead&quot;);"/><path id="edge-functional_1/average_pooling1d_1/AvgPool1D&#10;24" class="edge-path" d="M82.61871793376866,793L86.29505791355723,796.6666666666666C89.97139789334578,800.3333333333334,97.32407785292288,807.6666666666666,101.00041783271145,818.5833333333334C104.6767578125,829.5,104.6767578125,844,104.6767578125,858.5C104.6767578125,873,104.6767578125,887.5,104.6767578125,900.3333333333334C104.6767578125,913.1666666666666,104.6767578125,924.3333333333334,104.6767578125,935.5C104.6767578125,946.6666666666666,104.6767578125,957.8333333333334,104.6767578125,973C104.6767578125,988.1666666666666,104.6767578125,1007.3333333333334,104.6767578125,1024.5C104.6767578125,1041.6666666666667,104.6767578125,1056.8333333333333,104.6767578125,1069.6666666666667C104.6767578125,1082.5,104.6767578125,1093,104.6767578125,1105.5C104.6767578125,1118,104.6767578125,1132.5,101.00041783271145,1143.4166666666667C97.32407785292288,1154.3333333333333,89.97139789334578,1161.6666666666667,86.29505791355723,1165.3333333333333L82.61871793376866,1169" style="stroke: rgb(0, 0, 0); stroke-width: 1px; fill: none; marker-end: url(&quot;#arrowhead&quot;);"/><path id="edge-functional_1/average_pooling1d_1/AvgPool1D/Squeeze1&#10;25" class="edge-path" d="M37.5,880L37.5,883.6666666666666C37.5,887.3333333333334,37.5,894.6666666666666,37.5,902C37.5,909.3333333333334,37.5,916.6666666666666,37.5,920.3333333333334L37.5,924" style="stroke: rgb(0, 0, 0); stroke-width: 1px; fill: none; marker-end: url(&quot;#arrowhead&quot;);"/><path id="edge-functional_1/flatten_1/Shape&#10;26" class="edge-path" d="M37.5,947L37.5,950.6666666666666C37.5,954.3333333333334,37.5,961.6666666666666,37.5,969C37.5,976.3333333333334,37.5,983.6666666666666,37.5,987.3333333333334L37.5,991" style="stroke: rgb(0, 0, 0); stroke-width: 1px; fill: none; marker-end: url(&quot;#arrowhead&quot;);"/><path id="edge-functional_1/flatten_1/strided_slice&#10;27" class="edge-path" d="M37.5,1062L37.5,1063.6666666666667C37.5,1065.3333333333333,37.5,1068.6666666666667,37.5,1072C37.5,1075.3333333333333,37.5,1078.6666666666667,37.5,1080.3333333333333L37.5,1082" style="stroke: rgb(0, 0, 0); stroke-width: 1px; fill: none; marker-end: url(&quot;#arrowhead&quot;);"/><path id="edge-functional_1/flatten_1/Reshape/shape&#10;28" class="edge-path" d="M37.5,1125L37.5,1128.6666666666667C37.5,1132.3333333333333,37.5,1139.6666666666667,41.17633997978856,1147C44.85267995957711,1154.3333333333333,52.205359919154226,1161.6666666666667,55.88169989894278,1165.3333333333333L59.55803987873134,1169" style="stroke: rgb(0, 0, 0); stroke-width: 1px; fill: none; marker-end: url(&quot;#arrowhead&quot;);"/><path id="edge-functional_1/flatten_1/Reshape&#10;29" class="edge-path" d="M71.08837890625,1192L71.08837890625,1195.6666666666667C71.08837890625,1199.3333333333333,71.08837890625,1206.6666666666667,71.08837890625,1214C71.08837890625,1221.3333333333333,71.08837890625,1228.6666666666667,71.08837890625,1232.3333333333333L71.08837890625,1236" style="stroke: rgb(0, 0, 0); stroke-width: 1px; fill: none; marker-end: url(&quot;#arrowhead&quot;);"/><path id="edge-functional_1/dense_1/MatMul;functional_1/dense_1/Relu;functional_1/dense_1/BiasAdd&#10;30" class="edge-path" d="M71.08837890625,1316L71.08837890625,1319.6666666666667C71.08837890625,1323.3333333333333,71.08837890625,1330.6666666666667,71.08837890625,1338C71.08837890625,1345.3333333333333,71.08837890625,1352.6666666666667,71.08837890625,1356.3333333333333L71.08837890625,1360" style="stroke: rgb(0, 0, 0); stroke-width: 1px; fill: none; marker-end: url(&quot;#arrowhead&quot;);"/><path id="edge-StatefulPartitionedCall_1:0&#10;31" class="edge-path" d="M71.08837890625,1417L71.08837890625,1420.6666666666667C71.08837890625,1424.3333333333333,71.08837890625,1431.6666666666667,71.08837890625,1439C71.08837890625,1446.3333333333333,71.08837890625,1453.6666666666667,71.08837890625,1457.3333333333333L71.08837890625,1461" style="stroke: rgb(0, 0, 0); stroke-width: 1px; fill: none; marker-end: url(&quot;#arrowhead&quot;);"/></g><g id="edge-labels" class="edge-labels"><text class="edge-label" id="edge-label-edge-serving_default_input_layer:0&#10;0" style="opacity: 1; font-family: -apple-system, BlinkMacSystemFont, &quot;Segoe WPC&quot;, &quot;Segoe UI&quot;, Ubuntu, &quot;Droid Sans&quot;, sans-serif, &quot;PingFang SC&quot;; font-size: 10px;" transform="translate(76.08837890625,48)"><tspan xml:space="preserve" dy="1em" x="1">?×50×31</tspan></text><text class="edge-label" id="edge-label-edge-functional_1/conv1d_1/convolution/ExpandDims&#10;17" style="opacity: 1; font-family: -apple-system, BlinkMacSystemFont, &quot;Segoe WPC&quot;, &quot;Segoe UI&quot;, Ubuntu, &quot;Droid Sans&quot;, sans-serif, &quot;PingFang SC&quot;; font-size: 10px;" transform="translate(76.08837890625,145)"><tspan xml:space="preserve" dy="1em" x="1">?×1×50×31</tspan></text><text class="edge-label" id="edge-label-edge-functional_1/re_lu_1/Relu;functional_1/conv1d_1/BiasAdd;functional_1/conv1d_1/convolution/Squeeze;functional_1/conv1d_1/Squeeze;functional_1/conv1d_1/convolution1&#10;18" style="opacity: 1; font-family: -apple-system, BlinkMacSystemFont, &quot;Segoe WPC&quot;, &quot;Segoe UI&quot;, Ubuntu, &quot;Droid Sans&quot;, sans-serif, &quot;PingFang SC&quot;; font-size: 10px;" transform="translate(76.08837890625,269)"><tspan xml:space="preserve" dy="1em" x="1">?×1×50×14</tspan></text><text class="edge-label" id="edge-label-edge-functional_1/re_lu_1/Relu;functional_1/conv1d_1/BiasAdd;functional_1/conv1d_1/convolution/Squeeze;functional_1/conv1d_1/Squeeze&#10;19" style="opacity: 1; font-family: -apple-system, BlinkMacSystemFont, &quot;Segoe WPC&quot;, &quot;Segoe UI&quot;, Ubuntu, &quot;Droid Sans&quot;, sans-serif, &quot;PingFang SC&quot;; font-size: 10px;" transform="translate(76.08837890625,356)"><tspan xml:space="preserve" dy="1em" x="1">?×50×14</tspan></text><text class="edge-label" id="edge-label-edge-functional_1/depthwise_conv1d_1/ExpandDims&#10;20" style="opacity: 1; font-family: -apple-system, BlinkMacSystemFont, &quot;Segoe WPC&quot;, &quot;Segoe UI&quot;, Ubuntu, &quot;Droid Sans&quot;, sans-serif, &quot;PingFang SC&quot;; font-size: 10px;" transform="translate(76.08837890625,443)"><tspan xml:space="preserve" dy="1em" x="1">?×1×50×14</tspan></text><text class="edge-label" id="edge-label-edge-functional_1/re_lu_1_2/Relu;functional_1/depthwise_conv1d_1/BiasAdd;functional_1/depthwise_conv1d_1/Squeeze;functional_1/depthwise_conv1d_1/Squeeze_1;functional_1/depthwise_conv1d_1/depthwise1&#10;21" style="opacity: 1; font-family: -apple-system, BlinkMacSystemFont, &quot;Segoe WPC&quot;, &quot;Segoe UI&quot;, Ubuntu, &quot;Droid Sans&quot;, sans-serif, &quot;PingFang SC&quot;; font-size: 10px;" transform="translate(76.08837890625,567)"><tspan xml:space="preserve" dy="1em" x="1">?×1×25×14</tspan></text><text class="edge-label" id="edge-label-edge-functional_1/re_lu_1_2/Relu;functional_1/depthwise_conv1d_1/BiasAdd;functional_1/depthwise_conv1d_1/Squeeze;functional_1/depthwise_conv1d_1/Squeeze_1&#10;22" style="opacity: 1; font-family: -apple-system, BlinkMacSystemFont, &quot;Segoe WPC&quot;, &quot;Segoe UI&quot;, Ubuntu, &quot;Droid Sans&quot;, sans-serif, &quot;PingFang SC&quot;; font-size: 10px;" transform="translate(76.08837890625,654)"><tspan xml:space="preserve" dy="1em" x="1">?×25×14</tspan></text><text class="edge-label" id="edge-label-edge-functional_1/average_pooling1d_1/AvgPool1D/ExpandDims&#10;23" style="opacity: 1; font-family: -apple-system, BlinkMacSystemFont, &quot;Segoe WPC&quot;, &quot;Segoe UI&quot;, Ubuntu, &quot;Droid Sans&quot;, sans-serif, &quot;PingFang SC&quot;; font-size: 10px;" transform="translate(76.08837890625,741)"><tspan xml:space="preserve" dy="1em" x="1">?×1×25×14</tspan></text><text class="edge-label" id="edge-label-edge-functional_1/average_pooling1d_1/AvgPool1D&#10;24" style="opacity: 1; font-family: -apple-system, BlinkMacSystemFont, &quot;Segoe WPC&quot;, &quot;Segoe UI&quot;, Ubuntu, &quot;Droid Sans&quot;, sans-serif, &quot;PingFang SC&quot;; font-size: 10px;" transform="translate(42.5,808)"><tspan xml:space="preserve" dy="1em" x="1">?×1×7×14</tspan></text><text class="edge-label" id="edge-label-edge-functional_1/average_pooling1d_1/AvgPool1D&#10;24" style="opacity: 1; font-family: -apple-system, BlinkMacSystemFont, &quot;Segoe WPC&quot;, &quot;Segoe UI&quot;, Ubuntu, &quot;Droid Sans&quot;, sans-serif, &quot;PingFang SC&quot;; font-size: 10px;" transform="translate(109.6767578125,962)"><tspan xml:space="preserve" dy="1em" x="1">?×1×7×14</tspan></text><text class="edge-label" id="edge-label-edge-functional_1/average_pooling1d_1/AvgPool1D/Squeeze1&#10;25" style="opacity: 1; font-family: -apple-system, BlinkMacSystemFont, &quot;Segoe WPC&quot;, &quot;Segoe UI&quot;, Ubuntu, &quot;Droid Sans&quot;, sans-serif, &quot;PingFang SC&quot;; font-size: 10px;" transform="translate(42.5,895)"><tspan xml:space="preserve" dy="1em" x="1">?×7×14</tspan></text><text class="edge-label" id="edge-label-edge-functional_1/flatten_1/Shape&#10;26" style="opacity: 1; font-family: -apple-system, BlinkMacSystemFont, &quot;Segoe WPC&quot;, &quot;Segoe UI&quot;, Ubuntu, &quot;Droid Sans&quot;, sans-serif, &quot;PingFang SC&quot;; font-size: 10px;" transform="translate(42.5,962)"><tspan xml:space="preserve" dy="1em" x="1">3</tspan></text><text class="edge-label" id="edge-label-edge-functional_1/flatten_1/Reshape/shape&#10;28" style="opacity: 1; font-family: -apple-system, BlinkMacSystemFont, &quot;Segoe WPC&quot;, &quot;Segoe UI&quot;, Ubuntu, &quot;Droid Sans&quot;, sans-serif, &quot;PingFang SC&quot;; font-size: 10px;" transform="translate(42.5,1140)"><tspan xml:space="preserve" dy="1em" x="1">2</tspan></text><text class="edge-label" id="edge-label-edge-functional_1/flatten_1/Reshape&#10;29" style="opacity: 1; font-family: -apple-system, BlinkMacSystemFont, &quot;Segoe WPC&quot;, &quot;Segoe UI&quot;, Ubuntu, &quot;Droid Sans&quot;, sans-serif, &quot;PingFang SC&quot;; font-size: 10px;" transform="translate(76.08837890625,1207)"><tspan xml:space="preserve" dy="1em" x="1">?×98</tspan></text><text class="edge-label" id="edge-label-edge-functional_1/dense_1/MatMul;functional_1/dense_1/Relu;functional_1/dense_1/BiasAdd&#10;30" style="opacity: 1; font-family: -apple-system, BlinkMacSystemFont, &quot;Segoe WPC&quot;, &quot;Segoe UI&quot;, Ubuntu, &quot;Droid Sans&quot;, sans-serif, &quot;PingFang SC&quot;; font-size: 10px;" transform="translate(76.08837890625,1331)"><tspan xml:space="preserve" dy="1em" x="1">?×73</tspan></text><text class="edge-label" id="edge-label-edge-StatefulPartitionedCall_1:0&#10;31" style="opacity: 1; font-family: -apple-system, BlinkMacSystemFont, &quot;Segoe WPC&quot;, &quot;Segoe UI&quot;, Ubuntu, &quot;Droid Sans&quot;, sans-serif, &quot;PingFang SC&quot;; font-size: 10px;" transform="translate(76.08837890625,1432)"><tspan xml:space="preserve" dy="1em" x="1">?×3</tspan></text></g><g id="nodes" class="nodes"><g id="input-name-input_layer" class="node graph-input" style="" transform="translate(36.9833984375,0)"><g class="node-item graph-item-input" transform="translate(0,0)"><path d="M5,0h58.2099609375a5,5 0 0 1 5,5v13a5,5 0 0 1 -5,5h-58.2099609375a5,5 0 0 1 -5,-5v-13a5,5 0 0 1 5,-5z" style="stroke: rgb(0, 0, 0); fill: rgb(238, 238, 238); stroke-width: 0;"/><text x="7" y="16" style="font-family: -apple-system, BlinkMacSystemFont, &quot;Segoe WPC&quot;, &quot;Segoe UI&quot;, Ubuntu, &quot;Droid Sans&quot;, sans-serif, &quot;PingFang SC&quot;; font-size: 11px; text-rendering: geometricprecision; user-select: none;">input_layer</text><title>float32[-1,50,31]</title></g><path class="node node-border" d="M5,0h58.2099609375a5,5 0 0 1 5,5v13a5,5 0 0 1 -5,5h-58.2099609375a5,5 0 0 1 -5,-5v-13a5,5 0 0 1 5,-5z" style="stroke: rgb(51, 51, 51); fill: none; stroke-width: 1px;"/></g><g id="node-id-0" class="node graph-node" style="" transform="translate(33.3544921875,87)"><g class="node-item node-item-type" transform="translate(0,0)"><path d="M5,0h65.4677734375a5,5 0 0 1 5,5v18a0,0 0 0 1 0,0h-75.4677734375a0,0 0 0 1 0,0v-18a5,5 0 0 1 5,-5z" style="stroke: rgb(0, 0, 0); fill: rgb(51, 51, 51); stroke-width: 0;"/><text x="7" y="16" style="font-family: -apple-system, BlinkMacSystemFont, &quot;Segoe WPC&quot;, &quot;Segoe UI&quot;, Ubuntu, &quot;Droid Sans&quot;, sans-serif, &quot;PingFang SC&quot;; font-size: 11px; text-rendering: geometricprecision; user-select: none; fill: rgb(255, 255, 255);">ExpandDims</text><title>0</title></g><g class="node-argument-list" transform="translate(0,23)"><path d="M0,0h75.4677734375a0,0 0 0 1 0,0v15a5,5 0 0 1 -5,5h-65.4677734375a5,5 0 0 1 -5,-5v-15a0,0 0 0 1 0,0z" style="stroke: rgb(0, 0, 0); fill: rgb(255, 255, 255); stroke-width: 0;"/><g class="node-argument"><rect rx="3" ry="3" x="3" y="3" width="69.4677734375" height="14" style="fill: transparent;"/><text xml:space="preserve" x="6" y="14" style="font-family: -apple-system, BlinkMacSystemFont, &quot;Segoe WPC&quot;, &quot;Segoe UI&quot;, Ubuntu, &quot;Droid Sans&quot;, sans-serif, &quot;PingFang SC&quot;; font-size: 9px; font-weight: normal; text-rendering: geometricprecision; user-select: none;"><title>int32</title><tspan>axis_param</tspan><tspan> = -3</tspan></text></g><line class="node" x1="0" x2="75.4677734375" y1="0" y2="0" style="stroke: rgb(51, 51, 51); fill: none; stroke-width: 1px;"/></g><path class="node node-border" d="M5,0h65.4677734375a5,5 0 0 1 5,5v33a5,5 0 0 1 -5,5h-65.4677734375a5,5 0 0 1 -5,-5v-33a5,5 0 0 1 5,-5z" style="stroke: rgb(51, 51, 51); fill: none; stroke-width: 1px;"/></g><g id="node-id-1" class="node graph-node" style="" transform="translate(21.54931640625,174)"><g class="node-item node-item-type node-item-type-layer" transform="translate(0,0)"><path d="M5,0h89.078125a5,5 0 0 1 5,5v18a0,0 0 0 1 0,0h-99.078125a0,0 0 0 1 0,0v-18a5,5 0 0 1 5,-5z" style="stroke: rgb(0, 0, 0); fill: rgb(51, 85, 136); stroke-width: 0;"/><text x="7" y="16" style="font-family: -apple-system, BlinkMacSystemFont, &quot;Segoe WPC&quot;, &quot;Segoe UI&quot;, Ubuntu, &quot;Droid Sans&quot;, sans-serif, &quot;PingFang SC&quot;; font-size: 11px; text-rendering: geometricprecision; user-select: none; fill: rgb(255, 255, 255);">Conv2D</text><title>1</title></g><g class="node-argument-list" transform="translate(0,23)"><path d="M0,0h99.078125a0,0 0 0 1 0,0v34a0,0 0 0 1 0,0h-99.078125a0,0 0 0 1 0,0v-34a0,0 0 0 1 0,0z" style="stroke: rgb(0, 0, 0); fill: rgb(255, 255, 255); stroke-width: 0;"/><g class="node-argument"><rect rx="3" ry="3" x="3" y="3" width="93.078125" height="14" style="fill: transparent;"/><text xml:space="preserve" x="6" y="14" style="font-family: -apple-system, BlinkMacSystemFont, &quot;Segoe WPC&quot;, &quot;Segoe UI&quot;, Ubuntu, &quot;Droid Sans&quot;, sans-serif, &quot;PingFang SC&quot;; font-size: 9px; font-weight: normal; text-rendering: geometricprecision; user-select: none;"><title>float32[14,1,1,31]</title><tspan style="font-weight: bold;">filter</tspan><tspan>〈14×1×1×31〉</tspan></text></g><g class="node-argument"><rect rx="3" ry="3" x="3" y="17" width="93.078125" height="14" style="fill: transparent;"/><text xml:space="preserve" x="6" y="28" style="font-family: -apple-system, BlinkMacSystemFont, &quot;Segoe WPC&quot;, &quot;Segoe UI&quot;, Ubuntu, &quot;Droid Sans&quot;, sans-serif, &quot;PingFang SC&quot;; font-size: 9px; font-weight: normal; text-rendering: geometricprecision; user-select: none;"><title>float32[14]</title><tspan style="font-weight: bold;">bias</tspan><tspan>〈14〉</tspan></text></g><line class="node" x1="0" x2="99.078125" y1="0" y2="0" style="stroke: rgb(51, 51, 51); fill: none; stroke-width: 1px;"/></g><g class="node-item node-item-type node-item-type-activation" transform="translate(0,57)"><path d="M0,0h99.078125a0,0 0 0 1 0,0v18a5,5 0 0 1 -5,5h-89.078125a5,5 0 0 1 -5,-5v-18a0,0 0 0 1 0,0z" style="stroke: rgb(0, 0, 0); fill: rgb(112, 41, 33); stroke-width: 0;"/><text x="7" y="16" style="font-family: -apple-system, BlinkMacSystemFont, &quot;Segoe WPC&quot;, &quot;Segoe UI&quot;, Ubuntu, &quot;Droid Sans&quot;, sans-serif, &quot;PingFang SC&quot;; font-size: 11px; text-rendering: geometricprecision; user-select: none; fill: rgb(255, 255, 255);">Relu</text></g><line class="node" x1="0" x2="99.078125" y1="57" y2="57" style="stroke: rgb(51, 51, 51); fill: none; stroke-width: 1px;"/><path class="node node-border" d="M5,0h89.078125a5,5 0 0 1 5,5v70a5,5 0 0 1 -5,5h-89.078125a5,5 0 0 1 -5,-5v-70a5,5 0 0 1 5,-5z" style="stroke: rgb(51, 51, 51); fill: none; stroke-width: 1px;"/></g><g id="node-id-3" class="node graph-node" style="" transform="translate(33.58837890625,298)"><g class="node-item node-item-type node-item-type-shape" transform="translate(0,0)"><path d="M5,0h65a5,5 0 0 1 5,5v18a0,0 0 0 1 0,0h-75a0,0 0 0 1 0,0v-18a5,5 0 0 1 5,-5z" style="stroke: rgb(0, 0, 0); fill: rgb(108, 79, 71); stroke-width: 0;"/><text x="7" y="16" style="font-family: -apple-system, BlinkMacSystemFont, &quot;Segoe WPC&quot;, &quot;Segoe UI&quot;, Ubuntu, &quot;Droid Sans&quot;, sans-serif, &quot;PingFang SC&quot;; font-size: 11px; text-rendering: geometricprecision; user-select: none; fill: rgb(255, 255, 255);">Reshape</text><title>2</title></g><g class="node-argument-list" transform="translate(0,23)"><path d="M0,0h75a0,0 0 0 1 0,0v15a5,5 0 0 1 -5,5h-65a5,5 0 0 1 -5,-5v-15a0,0 0 0 1 0,0z" style="stroke: rgb(0, 0, 0); fill: rgb(255, 255, 255); stroke-width: 0;"/><g class="node-argument"><rect rx="3" ry="3" x="3" y="3" width="69" height="14" style="fill: transparent;"/><text xml:space="preserve" x="6" y="14" style="font-family: -apple-system, BlinkMacSystemFont, &quot;Segoe WPC&quot;, &quot;Segoe UI&quot;, Ubuntu, &quot;Droid Sans&quot;, sans-serif, &quot;PingFang SC&quot;; font-size: 9px; font-weight: normal; text-rendering: geometricprecision; user-select: none;"><title>int32[3]</title><tspan style="font-weight: bold;">shape</tspan><tspan>〈3〉</tspan></text></g><line class="node" x1="0" x2="75" y1="0" y2="0" style="stroke: rgb(51, 51, 51); fill: none; stroke-width: 1px;"/></g><path class="node node-border" d="M5,0h65a5,5 0 0 1 5,5v33a5,5 0 0 1 -5,5h-65a5,5 0 0 1 -5,-5v-33a5,5 0 0 1 5,-5z" style="stroke: rgb(51, 51, 51); fill: none; stroke-width: 1px;"/></g><g id="node-id-4" class="node graph-node" style="" transform="translate(33.58837890625,385)"><g class="node-item node-item-type" transform="translate(0,0)"><path d="M5,0h65a5,5 0 0 1 5,5v18a0,0 0 0 1 0,0h-75a0,0 0 0 1 0,0v-18a5,5 0 0 1 5,-5z" style="stroke: rgb(0, 0, 0); fill: rgb(51, 51, 51); stroke-width: 0;"/><text x="7" y="16" style="font-family: -apple-system, BlinkMacSystemFont, &quot;Segoe WPC&quot;, &quot;Segoe UI&quot;, Ubuntu, &quot;Droid Sans&quot;, sans-serif, &quot;PingFang SC&quot;; font-size: 11px; text-rendering: geometricprecision; user-select: none; fill: rgb(255, 255, 255);">ExpandDims</text><title>3</title></g><g class="node-argument-list" transform="translate(0,23)"><path d="M0,0h75a0,0 0 0 1 0,0v15a5,5 0 0 1 -5,5h-65a5,5 0 0 1 -5,-5v-15a0,0 0 0 1 0,0z" style="stroke: rgb(0, 0, 0); fill: rgb(255, 255, 255); stroke-width: 0;"/><g class="node-argument"><rect rx="3" ry="3" x="3" y="3" width="69" height="14" style="fill: transparent;"/><text xml:space="preserve" x="6" y="14" style="font-family: -apple-system, BlinkMacSystemFont, &quot;Segoe WPC&quot;, &quot;Segoe UI&quot;, Ubuntu, &quot;Droid Sans&quot;, sans-serif, &quot;PingFang SC&quot;; font-size: 9px; font-weight: normal; text-rendering: geometricprecision; user-select: none;"><title>int32</title><tspan>axis_param</tspan><tspan> = 1</tspan></text></g><line class="node" x1="0" x2="75" y1="0" y2="0" style="stroke: rgb(51, 51, 51); fill: none; stroke-width: 1px;"/></g><path class="node node-border" d="M5,0h65a5,5 0 0 1 5,5v33a5,5 0 0 1 -5,5h-65a5,5 0 0 1 -5,-5v-33a5,5 0 0 1 5,-5z" style="stroke: rgb(51, 51, 51); fill: none; stroke-width: 1px;"/></g><g id="node-id-5" class="node graph-node" style="" transform="translate(17.71337890625,472)"><g class="node-item node-item-type node-item-type-layer" transform="translate(0,0)"><path d="M5,0h96.75a5,5 0 0 1 5,5v18a0,0 0 0 1 0,0h-106.75a0,0 0 0 1 0,0v-18a5,5 0 0 1 5,-5z" style="stroke: rgb(0, 0, 0); fill: rgb(51, 85, 136); stroke-width: 0;"/><text x="7" y="16" style="font-family: -apple-system, BlinkMacSystemFont, &quot;Segoe WPC&quot;, &quot;Segoe UI&quot;, Ubuntu, &quot;Droid Sans&quot;, sans-serif, &quot;PingFang SC&quot;; font-size: 11px; text-rendering: geometricprecision; user-select: none; fill: rgb(255, 255, 255);">DepthwiseConv2D</text><title>4</title></g><g class="node-argument-list" transform="translate(0,23)"><path d="M0,0h106.75a0,0 0 0 1 0,0v34a0,0 0 0 1 0,0h-106.75a0,0 0 0 1 0,0v-34a0,0 0 0 1 0,0z" style="stroke: rgb(0, 0, 0); fill: rgb(255, 255, 255); stroke-width: 0;"/><g class="node-argument"><rect rx="3" ry="3" x="3" y="3" width="100.75" height="14" style="fill: transparent;"/><text xml:space="preserve" x="6" y="14" style="font-family: -apple-system, BlinkMacSystemFont, &quot;Segoe WPC&quot;, &quot;Segoe UI&quot;, Ubuntu, &quot;Droid Sans&quot;, sans-serif, &quot;PingFang SC&quot;; font-size: 9px; font-weight: normal; text-rendering: geometricprecision; user-select: none;"><title>float32[1,1,3,14]</title><tspan style="font-weight: bold;">weights</tspan><tspan>〈1×1×3×14〉</tspan></text></g><g class="node-argument"><rect rx="3" ry="3" x="3" y="17" width="100.75" height="14" style="fill: transparent;"/><text xml:space="preserve" x="6" y="28" style="font-family: -apple-system, BlinkMacSystemFont, &quot;Segoe WPC&quot;, &quot;Segoe UI&quot;, Ubuntu, &quot;Droid Sans&quot;, sans-serif, &quot;PingFang SC&quot;; font-size: 9px; font-weight: normal; text-rendering: geometricprecision; user-select: none;"><title>float32[14]</title><tspan style="font-weight: bold;">bias</tspan><tspan>〈14〉</tspan></text></g><line class="node" x1="0" x2="106.75" y1="0" y2="0" style="stroke: rgb(51, 51, 51); fill: none; stroke-width: 1px;"/></g><g class="node-item node-item-type node-item-type-activation" transform="translate(0,57)"><path d="M0,0h106.75a0,0 0 0 1 0,0v18a5,5 0 0 1 -5,5h-96.75a5,5 0 0 1 -5,-5v-18a0,0 0 0 1 0,0z" style="stroke: rgb(0, 0, 0); fill: rgb(112, 41, 33); stroke-width: 0;"/><text x="7" y="16" style="font-family: -apple-system, BlinkMacSystemFont, &quot;Segoe WPC&quot;, &quot;Segoe UI&quot;, Ubuntu, &quot;Droid Sans&quot;, sans-serif, &quot;PingFang SC&quot;; font-size: 11px; text-rendering: geometricprecision; user-select: none; fill: rgb(255, 255, 255);">Relu</text></g><line class="node" x1="0" x2="106.75" y1="57" y2="57" style="stroke: rgb(51, 51, 51); fill: none; stroke-width: 1px;"/><path class="node node-border" d="M5,0h96.75a5,5 0 0 1 5,5v70a5,5 0 0 1 -5,5h-96.75a5,5 0 0 1 -5,-5v-70a5,5 0 0 1 5,-5z" style="stroke: rgb(51, 51, 51); fill: none; stroke-width: 1px;"/></g><g id="node-id-7" class="node graph-node" style="" transform="translate(33.58837890625,596)"><g class="node-item node-item-type node-item-type-shape" transform="translate(0,0)"><path d="M5,0h65a5,5 0 0 1 5,5v18a0,0 0 0 1 0,0h-75a0,0 0 0 1 0,0v-18a5,5 0 0 1 5,-5z" style="stroke: rgb(0, 0, 0); fill: rgb(108, 79, 71); stroke-width: 0;"/><text x="7" y="16" style="font-family: -apple-system, BlinkMacSystemFont, &quot;Segoe WPC&quot;, &quot;Segoe UI&quot;, Ubuntu, &quot;Droid Sans&quot;, sans-serif, &quot;PingFang SC&quot;; font-size: 11px; text-rendering: geometricprecision; user-select: none; fill: rgb(255, 255, 255);">Reshape</text><title>5</title></g><g class="node-argument-list" transform="translate(0,23)"><path d="M0,0h75a0,0 0 0 1 0,0v15a5,5 0 0 1 -5,5h-65a5,5 0 0 1 -5,-5v-15a0,0 0 0 1 0,0z" style="stroke: rgb(0, 0, 0); fill: rgb(255, 255, 255); stroke-width: 0;"/><g class="node-argument"><rect rx="3" ry="3" x="3" y="3" width="69" height="14" style="fill: transparent;"/><text xml:space="preserve" x="6" y="14" style="font-family: -apple-system, BlinkMacSystemFont, &quot;Segoe WPC&quot;, &quot;Segoe UI&quot;, Ubuntu, &quot;Droid Sans&quot;, sans-serif, &quot;PingFang SC&quot;; font-size: 9px; font-weight: normal; text-rendering: geometricprecision; user-select: none;"><title>int32[3]</title><tspan style="font-weight: bold;">shape</tspan><tspan>〈3〉</tspan></text></g><line class="node" x1="0" x2="75" y1="0" y2="0" style="stroke: rgb(51, 51, 51); fill: none; stroke-width: 1px;"/></g><path class="node node-border" d="M5,0h65a5,5 0 0 1 5,5v33a5,5 0 0 1 -5,5h-65a5,5 0 0 1 -5,-5v-33a5,5 0 0 1 5,-5z" style="stroke: rgb(51, 51, 51); fill: none; stroke-width: 1px;"/></g><g id="node-id-8" class="node graph-node" style="" transform="translate(33.58837890625,683)"><g class="node-item node-item-type" transform="translate(0,0)"><path d="M5,0h65a5,5 0 0 1 5,5v18a0,0 0 0 1 0,0h-75a0,0 0 0 1 0,0v-18a5,5 0 0 1 5,-5z" style="stroke: rgb(0, 0, 0); fill: rgb(51, 51, 51); stroke-width: 0;"/><text x="7" y="16" style="font-family: -apple-system, BlinkMacSystemFont, &quot;Segoe WPC&quot;, &quot;Segoe UI&quot;, Ubuntu, &quot;Droid Sans&quot;, sans-serif, &quot;PingFang SC&quot;; font-size: 11px; text-rendering: geometricprecision; user-select: none; fill: rgb(255, 255, 255);">ExpandDims</text><title>6</title></g><g class="node-argument-list" transform="translate(0,23)"><path d="M0,0h75a0,0 0 0 1 0,0v15a5,5 0 0 1 -5,5h-65a5,5 0 0 1 -5,-5v-15a0,0 0 0 1 0,0z" style="stroke: rgb(0, 0, 0); fill: rgb(255, 255, 255); stroke-width: 0;"/><g class="node-argument"><rect rx="3" ry="3" x="3" y="3" width="69" height="14" style="fill: transparent;"/><text xml:space="preserve" x="6" y="14" style="font-family: -apple-system, BlinkMacSystemFont, &quot;Segoe WPC&quot;, &quot;Segoe UI&quot;, Ubuntu, &quot;Droid Sans&quot;, sans-serif, &quot;PingFang SC&quot;; font-size: 9px; font-weight: normal; text-rendering: geometricprecision; user-select: none;"><title>int32</title><tspan>axis_param</tspan><tspan> = 1</tspan></text></g><line class="node" x1="0" x2="75" y1="0" y2="0" style="stroke: rgb(51, 51, 51); fill: none; stroke-width: 1px;"/></g><path class="node node-border" d="M5,0h65a5,5 0 0 1 5,5v33a5,5 0 0 1 -5,5h-65a5,5 0 0 1 -5,-5v-33a5,5 0 0 1 5,-5z" style="stroke: rgb(51, 51, 51); fill: none; stroke-width: 1px;"/></g><g id="node-id-9" class="node graph-node" style="" transform="translate(26.193603515625,770)"><g class="node-item node-item-type node-item-type-pool" transform="translate(0,0)"><path d="M5,0h79.78955078125a5,5 0 0 1 5,5v13a5,5 0 0 1 -5,5h-79.78955078125a5,5 0 0 1 -5,-5v-13a5,5 0 0 1 5,-5z" style="stroke: rgb(0, 0, 0); fill: rgb(51, 85, 51); stroke-width: 0;"/><text x="7" y="16" style="font-family: -apple-system, BlinkMacSystemFont, &quot;Segoe WPC&quot;, &quot;Segoe UI&quot;, Ubuntu, &quot;Droid Sans&quot;, sans-serif, &quot;PingFang SC&quot;; font-size: 11px; text-rendering: geometricprecision; user-select: none; fill: rgb(255, 255, 255);">AveragePool2D</text><title>7</title></g><path class="node node-border" d="M5,0h79.78955078125a5,5 0 0 1 5,5v13a5,5 0 0 1 -5,5h-79.78955078125a5,5 0 0 1 -5,-5v-13a5,5 0 0 1 5,-5z" style="stroke: rgb(51, 51, 51); fill: none; stroke-width: 1px;"/></g><g id="node-id-10" class="node graph-node" style="" transform="translate(0,837)"><g class="node-item node-item-type node-item-type-shape" transform="translate(0,0)"><path d="M5,0h65a5,5 0 0 1 5,5v18a0,0 0 0 1 0,0h-75a0,0 0 0 1 0,0v-18a5,5 0 0 1 5,-5z" style="stroke: rgb(0, 0, 0); fill: rgb(108, 79, 71); stroke-width: 0;"/><text x="7" y="16" style="font-family: -apple-system, BlinkMacSystemFont, &quot;Segoe WPC&quot;, &quot;Segoe UI&quot;, Ubuntu, &quot;Droid Sans&quot;, sans-serif, &quot;PingFang SC&quot;; font-size: 11px; text-rendering: geometricprecision; user-select: none; fill: rgb(255, 255, 255);">Reshape</text><title>8</title></g><g class="node-argument-list" transform="translate(0,23)"><path d="M0,0h75a0,0 0 0 1 0,0v15a5,5 0 0 1 -5,5h-65a5,5 0 0 1 -5,-5v-15a0,0 0 0 1 0,0z" style="stroke: rgb(0, 0, 0); fill: rgb(255, 255, 255); stroke-width: 0;"/><g class="node-argument"><rect rx="3" ry="3" x="3" y="3" width="69" height="14" style="fill: transparent;"/><text xml:space="preserve" x="6" y="14" style="font-family: -apple-system, BlinkMacSystemFont, &quot;Segoe WPC&quot;, &quot;Segoe UI&quot;, Ubuntu, &quot;Droid Sans&quot;, sans-serif, &quot;PingFang SC&quot;; font-size: 9px; font-weight: normal; text-rendering: geometricprecision; user-select: none;"><title>int32[3]</title><tspan style="font-weight: bold;">shape</tspan><tspan>〈3〉</tspan></text></g><line class="node" x1="0" x2="75" y1="0" y2="0" style="stroke: rgb(51, 51, 51); fill: none; stroke-width: 1px;"/></g><path class="node node-border" d="M5,0h65a5,5 0 0 1 5,5v33a5,5 0 0 1 -5,5h-65a5,5 0 0 1 -5,-5v-33a5,5 0 0 1 5,-5z" style="stroke: rgb(51, 51, 51); fill: none; stroke-width: 1px;"/></g><g id="node-id-11" class="node graph-node" style="" transform="translate(15.433837890625,924)"><g class="node-item node-item-type" transform="translate(0,0)"><path d="M5,0h34.13232421875a5,5 0 0 1 5,5v13a5,5 0 0 1 -5,5h-34.13232421875a5,5 0 0 1 -5,-5v-13a5,5 0 0 1 5,-5z" style="stroke: rgb(0, 0, 0); fill: rgb(51, 51, 51); stroke-width: 0;"/><text x="7" y="16" style="font-family: -apple-system, BlinkMacSystemFont, &quot;Segoe WPC&quot;, &quot;Segoe UI&quot;, Ubuntu, &quot;Droid Sans&quot;, sans-serif, &quot;PingFang SC&quot;; font-size: 11px; text-rendering: geometricprecision; user-select: none; fill: rgb(255, 255, 255);">Shape</text><title>9</title></g><path class="node node-border" d="M5,0h34.13232421875a5,5 0 0 1 5,5v13a5,5 0 0 1 -5,5h-34.13232421875a5,5 0 0 1 -5,-5v-13a5,5 0 0 1 5,-5z" style="stroke: rgb(51, 51, 51); fill: none; stroke-width: 1px;"/></g><g id="node-id-12" class="node graph-node" style="" transform="translate(0,991)"><g class="node-item node-item-type node-item-type-tensor" transform="translate(0,0)"><path d="M5,0h65a5,5 0 0 1 5,5v18a0,0 0 0 1 0,0h-75a0,0 0 0 1 0,0v-18a5,5 0 0 1 5,-5z" style="stroke: rgb(0, 0, 0); fill: rgb(89, 66, 59); stroke-width: 0;"/><text x="7" y="16" style="font-family: -apple-system, BlinkMacSystemFont, &quot;Segoe WPC&quot;, &quot;Segoe UI&quot;, Ubuntu, &quot;Droid Sans&quot;, sans-serif, &quot;PingFang SC&quot;; font-size: 11px; text-rendering: geometricprecision; user-select: none; fill: rgb(255, 255, 255);">StridedSlice</text><title>10</title></g><g class="node-argument-list" transform="translate(0,23)"><path d="M0,0h75a0,0 0 0 1 0,0v43a5,5 0 0 1 -5,5h-65a5,5 0 0 1 -5,-5v-43a0,0 0 0 1 0,0z" style="stroke: rgb(0, 0, 0); fill: rgb(255, 255, 255); stroke-width: 0;"/><g class="node-argument"><rect rx="3" ry="3" x="3" y="3" width="69" height="14" style="fill: transparent;"/><text xml:space="preserve" x="6" y="14" style="font-family: -apple-system, BlinkMacSystemFont, &quot;Segoe WPC&quot;, &quot;Segoe UI&quot;, Ubuntu, &quot;Droid Sans&quot;, sans-serif, &quot;PingFang SC&quot;; font-size: 9px; font-weight: normal; text-rendering: geometricprecision; user-select: none;"><title>int32[1]</title><tspan style="font-weight: bold;">begin</tspan><tspan>〈1〉</tspan></text></g><g class="node-argument"><rect rx="3" ry="3" x="3" y="17" width="69" height="14" style="fill: transparent;"/><text xml:space="preserve" x="6" y="28" style="font-family: -apple-system, BlinkMacSystemFont, &quot;Segoe WPC&quot;, &quot;Segoe UI&quot;, Ubuntu, &quot;Droid Sans&quot;, sans-serif, &quot;PingFang SC&quot;; font-size: 9px; font-weight: normal; text-rendering: geometricprecision; user-select: none;"><title>int32[1]</title><tspan style="font-weight: bold;">end</tspan><tspan>〈1〉</tspan></text></g><g class="node-argument"><rect rx="3" ry="3" x="3" y="31" width="69" height="14" style="fill: transparent;"/><text xml:space="preserve" x="6" y="42" style="font-family: -apple-system, BlinkMacSystemFont, &quot;Segoe WPC&quot;, &quot;Segoe UI&quot;, Ubuntu, &quot;Droid Sans&quot;, sans-serif, &quot;PingFang SC&quot;; font-size: 9px; font-weight: normal; text-rendering: geometricprecision; user-select: none;"><title>int32[1]</title><tspan style="font-weight: bold;">strides</tspan><tspan>〈1〉</tspan></text></g><line class="node" x1="0" x2="75" y1="0" y2="0" style="stroke: rgb(51, 51, 51); fill: none; stroke-width: 1px;"/></g><path class="node node-border" d="M5,0h65a5,5 0 0 1 5,5v61a5,5 0 0 1 -5,5h-65a5,5 0 0 1 -5,-5v-61a5,5 0 0 1 5,-5z" style="stroke: rgb(51, 51, 51); fill: none; stroke-width: 1px;"/></g><g id="node-id-13" class="node graph-node" style="" transform="translate(0,1082)"><g class="node-item node-item-type" transform="translate(0,0)"><path d="M5,0h65a5,5 0 0 1 5,5v18a0,0 0 0 1 0,0h-75a0,0 0 0 1 0,0v-18a5,5 0 0 1 5,-5z" style="stroke: rgb(0, 0, 0); fill: rgb(51, 51, 51); stroke-width: 0;"/><text x="7" y="16" style="font-family: -apple-system, BlinkMacSystemFont, &quot;Segoe WPC&quot;, &quot;Segoe UI&quot;, Ubuntu, &quot;Droid Sans&quot;, sans-serif, &quot;PingFang SC&quot;; font-size: 11px; text-rendering: geometricprecision; user-select: none; fill: rgb(255, 255, 255);">Pack</text><title>11</title></g><g class="node-argument-list" transform="translate(0,23)"><path d="M0,0h75a0,0 0 0 1 0,0v15a5,5 0 0 1 -5,5h-65a5,5 0 0 1 -5,-5v-15a0,0 0 0 1 0,0z" style="stroke: rgb(0, 0, 0); fill: rgb(255, 255, 255); stroke-width: 0;"/><g class="node-argument"><rect rx="3" ry="3" x="3" y="3" width="69" height="14" style="fill: transparent;"/><text xml:space="preserve" x="6" y="14" style="font-family: -apple-system, BlinkMacSystemFont, &quot;Segoe WPC&quot;, &quot;Segoe UI&quot;, Ubuntu, &quot;Droid Sans&quot;, sans-serif, &quot;PingFang SC&quot;; font-size: 9px; font-weight: normal; text-rendering: geometricprecision; user-select: none;"><title>int32</title><tspan>2</tspan><tspan> = 98</tspan></text></g><line class="node" x1="0" x2="75" y1="0" y2="0" style="stroke: rgb(51, 51, 51); fill: none; stroke-width: 1px;"/></g><path class="node node-border" d="M5,0h65a5,5 0 0 1 5,5v33a5,5 0 0 1 -5,5h-65a5,5 0 0 1 -5,-5v-33a5,5 0 0 1 5,-5z" style="stroke: rgb(51, 51, 51); fill: none; stroke-width: 1px;"/></g><g id="node-id-14" class="node graph-node" style="" transform="translate(43.60546875,1169)"><g class="node-item node-item-type node-item-type-shape" transform="translate(0,0)"><path d="M5,0h44.9658203125a5,5 0 0 1 5,5v13a5,5 0 0 1 -5,5h-44.9658203125a5,5 0 0 1 -5,-5v-13a5,5 0 0 1 5,-5z" style="stroke: rgb(0, 0, 0); fill: rgb(108, 79, 71); stroke-width: 0;"/><text x="7" y="16" style="font-family: -apple-system, BlinkMacSystemFont, &quot;Segoe WPC&quot;, &quot;Segoe UI&quot;, Ubuntu, &quot;Droid Sans&quot;, sans-serif, &quot;PingFang SC&quot;; font-size: 11px; text-rendering: geometricprecision; user-select: none; fill: rgb(255, 255, 255);">Reshape</text><title>12</title></g><path class="node node-border" d="M5,0h44.9658203125a5,5 0 0 1 5,5v13a5,5 0 0 1 -5,5h-44.9658203125a5,5 0 0 1 -5,-5v-13a5,5 0 0 1 5,-5z" style="stroke: rgb(51, 51, 51); fill: none; stroke-width: 1px;"/></g><g id="node-id-15" class="node graph-node" style="" transform="translate(26.29150390625,1236)"><g class="node-item node-item-type node-item-type-layer" transform="translate(0,0)"><path d="M5,0h79.59375a5,5 0 0 1 5,5v18a0,0 0 0 1 0,0h-89.59375a0,0 0 0 1 0,0v-18a5,5 0 0 1 5,-5z" style="stroke: rgb(0, 0, 0); fill: rgb(51, 85, 136); stroke-width: 0;"/><text x="7" y="16" style="font-family: -apple-system, BlinkMacSystemFont, &quot;Segoe WPC&quot;, &quot;Segoe UI&quot;, Ubuntu, &quot;Droid Sans&quot;, sans-serif, &quot;PingFang SC&quot;; font-size: 11px; text-rendering: geometricprecision; user-select: none; fill: rgb(255, 255, 255);">FullyConnected</text><title>13</title></g><g class="node-argument-list" transform="translate(0,23)"><path d="M0,0h89.59375a0,0 0 0 1 0,0v34a0,0 0 0 1 0,0h-89.59375a0,0 0 0 1 0,0v-34a0,0 0 0 1 0,0z" style="stroke: rgb(0, 0, 0); fill: rgb(255, 255, 255); stroke-width: 0;"/><g class="node-argument"><rect rx="3" ry="3" x="3" y="3" width="83.59375" height="14" style="fill: transparent;"/><text xml:space="preserve" x="6" y="14" style="font-family: -apple-system, BlinkMacSystemFont, &quot;Segoe WPC&quot;, &quot;Segoe UI&quot;, Ubuntu, &quot;Droid Sans&quot;, sans-serif, &quot;PingFang SC&quot;; font-size: 9px; font-weight: normal; text-rendering: geometricprecision; user-select: none;"><title>float32[73,98]</title><tspan style="font-weight: bold;">weights</tspan><tspan>〈73×98〉</tspan></text></g><g class="node-argument"><rect rx="3" ry="3" x="3" y="17" width="83.59375" height="14" style="fill: transparent;"/><text xml:space="preserve" x="6" y="28" style="font-family: -apple-system, BlinkMacSystemFont, &quot;Segoe WPC&quot;, &quot;Segoe UI&quot;, Ubuntu, &quot;Droid Sans&quot;, sans-serif, &quot;PingFang SC&quot;; font-size: 9px; font-weight: normal; text-rendering: geometricprecision; user-select: none;"><title>float32[73]</title><tspan style="font-weight: bold;">bias</tspan><tspan>〈73〉</tspan></text></g><line class="node" x1="0" x2="89.59375" y1="0" y2="0" style="stroke: rgb(51, 51, 51); fill: none; stroke-width: 1px;"/></g><g class="node-item node-item-type node-item-type-activation" transform="translate(0,57)"><path d="M0,0h89.59375a0,0 0 0 1 0,0v18a5,5 0 0 1 -5,5h-79.59375a5,5 0 0 1 -5,-5v-18a0,0 0 0 1 0,0z" style="stroke: rgb(0, 0, 0); fill: rgb(112, 41, 33); stroke-width: 0;"/><text x="7" y="16" style="font-family: -apple-system, BlinkMacSystemFont, &quot;Segoe WPC&quot;, &quot;Segoe UI&quot;, Ubuntu, &quot;Droid Sans&quot;, sans-serif, &quot;PingFang SC&quot;; font-size: 11px; text-rendering: geometricprecision; user-select: none; fill: rgb(255, 255, 255);">Relu</text></g><line class="node" x1="0" x2="89.59375" y1="57" y2="57" style="stroke: rgb(51, 51, 51); fill: none; stroke-width: 1px;"/><path class="node node-border" d="M5,0h79.59375a5,5 0 0 1 5,5v70a5,5 0 0 1 -5,5h-79.59375a5,5 0 0 1 -5,-5v-70a5,5 0 0 1 5,-5z" style="stroke: rgb(51, 51, 51); fill: none; stroke-width: 1px;"/></g><g id="node-id-17" class="node graph-node" style="" transform="translate(26.71337890625,1360)"><g class="node-item node-item-type node-item-type-layer" transform="translate(0,0)"><path d="M5,0h78.75a5,5 0 0 1 5,5v18a0,0 0 0 1 0,0h-88.75a0,0 0 0 1 0,0v-18a5,5 0 0 1 5,-5z" style="stroke: rgb(0, 0, 0); fill: rgb(51, 85, 136); stroke-width: 0;"/><text x="7" y="16" style="font-family: -apple-system, BlinkMacSystemFont, &quot;Segoe WPC&quot;, &quot;Segoe UI&quot;, Ubuntu, &quot;Droid Sans&quot;, sans-serif, &quot;PingFang SC&quot;; font-size: 11px; text-rendering: geometricprecision; user-select: none; fill: rgb(255, 255, 255);">FullyConnected</text><title>14</title></g><g class="node-argument-list" transform="translate(0,23)"><path d="M0,0h88.75a0,0 0 0 1 0,0v29a5,5 0 0 1 -5,5h-78.75a5,5 0 0 1 -5,-5v-29a0,0 0 0 1 0,0z" style="stroke: rgb(0, 0, 0); fill: rgb(255, 255, 255); stroke-width: 0;"/><g class="node-argument"><rect rx="3" ry="3" x="3" y="3" width="82.75" height="14" style="fill: transparent;"/><text xml:space="preserve" x="6" y="14" style="font-family: -apple-system, BlinkMacSystemFont, &quot;Segoe WPC&quot;, &quot;Segoe UI&quot;, Ubuntu, &quot;Droid Sans&quot;, sans-serif, &quot;PingFang SC&quot;; font-size: 9px; font-weight: normal; text-rendering: geometricprecision; user-select: none;"><title>float32[3,73]</title><tspan style="font-weight: bold;">weights</tspan><tspan>〈3×73〉</tspan></text></g><g class="node-argument"><rect rx="3" ry="3" x="3" y="17" width="82.75" height="14" style="fill: transparent;"/><text xml:space="preserve" x="6" y="28" style="font-family: -apple-system, BlinkMacSystemFont, &quot;Segoe WPC&quot;, &quot;Segoe UI&quot;, Ubuntu, &quot;Droid Sans&quot;, sans-serif, &quot;PingFang SC&quot;; font-size: 9px; font-weight: normal; text-rendering: geometricprecision; user-select: none;"><title>float32[3]</title><tspan style="font-weight: bold;">bias</tspan><tspan>〈3〉</tspan></text></g><line class="node" x1="0" x2="88.75" y1="0" y2="0" style="stroke: rgb(51, 51, 51); fill: none; stroke-width: 1px;"/></g><path class="node node-border" d="M5,0h78.75a5,5 0 0 1 5,5v47a5,5 0 0 1 -5,5h-78.75a5,5 0 0 1 -5,-5v-47a5,5 0 0 1 5,-5z" style="stroke: rgb(51, 51, 51); fill: none; stroke-width: 1px;"/></g><g class="node" style="" transform="translate(42.39697265625,1461)"><g class="node-item graph-item-output" transform="translate(0,0)"><path d="M5,0h47.3828125a5,5 0 0 1 5,5v13a5,5 0 0 1 -5,5h-47.3828125a5,5 0 0 1 -5,-5v-13a5,5 0 0 1 5,-5z" style="stroke: rgb(0, 0, 0); fill: rgb(238, 238, 238); stroke-width: 0;"/><text x="7" y="16" style="font-family: -apple-system, BlinkMacSystemFont, &quot;Segoe WPC&quot;, &quot;Segoe UI&quot;, Ubuntu, &quot;Droid Sans&quot;, sans-serif, &quot;PingFang SC&quot;; font-size: 11px; text-rendering: geometricprecision; user-select: none;">output_0</text><title>float32[-1,3]</title></g><path class="node node-border" d="M5,0h47.3828125a5,5 0 0 1 5,5v13a5,5 0 0 1 -5,5h-47.3828125a5,5 0 0 1 -5,-5v-13a5,5 0 0 1 5,-5z" style="stroke: rgb(51, 51, 51); fill: none; stroke-width: 1px;"/></g></g><g id="tunnel-edges" class="tunnel-edges"/></g></svg>