<svg xmlns="http://www.w3.org/2000/svg" id="export" class="canvas" preserveAspectRatio="xMidYMid meet" style="" width="259" height="1445"><rect id="background" fill="#fff" pointer-events="all" width="259" height="1445"/><g id="origin" transform="translate(11.742822265625001, 11.742822265625001) scale(1)"><g id="clusters" class="clusters"/><g id="edge-paths" class="edge-paths" style="pointer-events: none;"><defs><marker id="arrowhead" viewBox="0 0 10 10" refX="9" refY="5" markerUnits="strokeWidth" markerWidth="8" markerHeight="6" orient="auto" style="fill: rgb(0, 0, 0);"><path d="M 0 0 L 10 5 L 0 10 L 4 5 z" style="stroke-width: 1;"/></marker><marker id="arrowhead-select" viewBox="0 0 10 10" refX="9" refY="5" markerUnits="strokeWidth" markerWidth="8" markerHeight="6" orient="auto" style="fill: rgba(220, 0, 0, 0.9);"><path d="M 0 0 L 10 5 L 0 10 L 4 5 z" style="stroke-width: 1;"/></marker><marker id="arrowhead-hover" viewBox="0 0 10 10" refX="9" refY="5" markerUnits="strokeWidth" markerWidth="8" markerHeight="6" orient="auto" style="fill: rgba(220, 0, 0, 0.9);"><path d="M 0 0 L 10 5 L 0 10 L 4 5 z" style="stroke-width: 1;"/></marker></defs><path id="edge-serving_default_input_layer:0&#10;0" class="edge-path" d="M114.83203125,23L114.83203125,24.666666666666668C114.83203125,26.333333333333332,114.83203125,29.666666666666668,114.83203125,35C114.83203125,40.333333333333336,114.83203125,47.666666666666664,114.83203125,55C114.83203125,62.333333333333336,114.83203125,69.66666666666667,114.83203125,75C114.83203125,80.33333333333333,114.83203125,83.66666666666667,114.83203125,85.33333333333333L114.83203125,87" style="stroke: rgb(0, 0, 0); stroke-width: 1px; fill: none; marker-end: url(&quot;#arrowhead&quot;);"/><path id="edge-model/quantize_layer/AllValuesQuantize/FakeQuantWithMinMaxVars;model/quantize_layer/AllValuesQuantize/FakeQuantWithMinMaxVars/ReadVariableOp;model/quantize_layer/AllValuesQuantize/FakeQuantWithMinMaxVars/ReadVariableOp_1&#10;2" class="edge-path" d="M114.83203125,110L114.83203125,113.66666666666667C114.83203125,117.33333333333333,114.83203125,124.66666666666667,114.83203125,132C114.83203125,139.33333333333334,114.83203125,146.66666666666666,114.83203125,150.33333333333334L114.83203125,154" style="stroke: rgb(0, 0, 0); stroke-width: 1px; fill: none; marker-end: url(&quot;#arrowhead&quot;);"/><path id="edge-model/quant_max_pooling1d/MaxPool&#10;3" class="edge-path" d="M114.83203125,177L114.83203125,180.66666666666666C114.83203125,184.33333333333334,114.83203125,191.66666666666666,114.83203125,199C114.83203125,206.33333333333334,114.83203125,213.66666666666666,114.83203125,217.33333333333334L114.83203125,221" style="stroke: rgb(0, 0, 0); stroke-width: 1px; fill: none; marker-end: url(&quot;#arrowhead&quot;);"/><path id="edge-model/quant_depthwise_conv1d/BiasAdd;model/quant_depthwise_conv1d/depthwise;model/quant_depthwise_conv1d/BiasAdd/ReadVariableOp1&#10;6" class="edge-path" d="M114.83203125,278L114.83203125,281.6666666666667C114.83203125,285.3333333333333,114.83203125,292.6666666666667,114.83203125,300C114.83203125,307.3333333333333,114.83203125,314.6666666666667,114.83203125,318.3333333333333L114.83203125,322" style="stroke: rgb(0, 0, 0); stroke-width: 1px; fill: none; marker-end: url(&quot;#arrowhead&quot;);"/><path id="edge-model/quant_re_lu/Relu;model/quant_conv1d/BiasAdd;model/quant_conv1d/Conv2D;model/quant_conv1d/BiasAdd/ReadVariableOp1&#10;9" class="edge-path" d="M154.48172883064515,402L158.1162844422043,405.6666666666667C161.75084005376343,409.3333333333333,169.0199512768817,416.6666666666667,172.65450688844086,430.6666666666667C176.2890625,444.6666666666667,176.2890625,465.3333333333333,176.2890625,486C176.2890625,506.6666666666667,176.2890625,527.3333333333334,176.2890625,541.3333333333334C176.2890625,555.3333333333334,176.2890625,562.6666666666666,176.2890625,566.3333333333334L176.2890625,570" style="stroke: rgb(0, 0, 0); stroke-width: 1px; fill: none; marker-end: url(&quot;#arrowhead&quot;);"/><path id="edge-model/quant_re_lu/Relu;model/quant_conv1d/BiasAdd;model/quant_conv1d/Conv2D;model/quant_conv1d/BiasAdd/ReadVariableOp1&#10;9" class="edge-path" d="M75.18233366935485,402L71.54777805779571,405.6666666666667C67.91322244623656,409.3333333333333,60.64411122311828,416.6666666666667,57.00955561155914,424C53.375,431.3333333333333,53.375,438.6666666666667,53.375,442.3333333333333L53.375,446" style="stroke: rgb(0, 0, 0); stroke-width: 1px; fill: none; marker-end: url(&quot;#arrowhead&quot;);"/><path id="edge-model/quant_re_lu_1/Relu;model/quant_batch_normalization/FusedBatchNormV3;model/quant_depthwise_conv1d_1/BiasAdd;model/quant_depthwise_conv1d_1/depthwise;model/quant_depthwise_conv1d_1/BiasAdd/ReadVariableOp1&#10;12" class="edge-path" d="M176.2890625,650L176.2890625,653.6666666666666C176.2890625,657.3333333333334,176.2890625,664.6666666666666,168.96809895833334,672.3239634314286C161.64713541666666,679.9812601961906,147.00520833333334,687.9625203923812,139.68424479166666,691.9531504904766L132.36328125,695.9437805885718" style="stroke: rgb(0, 0, 0); stroke-width: 1px; fill: none; marker-end: url(&quot;#arrowhead&quot;);"/><path id="edge-model/quant_re_lu_2/Relu;model/quant_depthwise_conv1d_2/BiasAdd;model/quant_depthwise_conv1d_2/depthwise;model/quant_depthwise_conv1d_2/BiasAdd/ReadVariableOp1&#10;15" class="edge-path" d="M53.375,526L53.375,529.6666666666666C53.375,533.3333333333334,53.375,540.6666666666666,53.375,548C53.375,555.3333333333334,53.375,562.6666666666666,53.375,566.3333333333334L53.375,570" style="stroke: rgb(0, 0, 0); stroke-width: 1px; fill: none; marker-end: url(&quot;#arrowhead&quot;);"/><path id="edge-model/quant_re_lu_3/Relu;model/quant_conv1d_1/BiasAdd;model/quant_conv1d_1/Conv2D;model/quant_conv1d_1/BiasAdd/ReadVariableOp1&#10;18" class="edge-path" d="M53.375,650L53.375,653.6666666666666C53.375,657.3333333333334,53.375,664.6666666666666,60.695963541666664,672.3239634314286C68.01692708333333,679.9812601961906,82.65885416666667,687.9625203923812,89.97981770833333,691.9531504904766L97.30078125,695.9437805885718" style="stroke: rgb(0, 0, 0); stroke-width: 1px; fill: none; marker-end: url(&quot;#arrowhead&quot;);"/><path id="edge-model/quant_add/add&#10;19" class="edge-path" d="M114.83203125,717L114.83203125,720.6666666666666C114.83203125,724.3333333333334,114.83203125,731.6666666666666,114.83203125,739C114.83203125,746.3333333333334,114.83203125,753.6666666666666,114.83203125,757.3333333333334L114.83203125,761" style="stroke: rgb(0, 0, 0); stroke-width: 1px; fill: none; marker-end: url(&quot;#arrowhead&quot;);"/><path id="edge-model/quant_average_pooling1d/AvgPool&#10;20" class="edge-path" d="M114.83203125,784L114.83203125,787.6666666666666C114.83203125,791.3333333333334,114.83203125,798.6666666666666,114.83203125,806C114.83203125,813.3333333333334,114.83203125,820.6666666666666,114.83203125,824.3333333333334L114.83203125,828" style="stroke: rgb(0, 0, 0); stroke-width: 1px; fill: none; marker-end: url(&quot;#arrowhead&quot;);"/><path id="edge-model/quant_average_pooling1d/AvgPool1&#10;21" class="edge-path" d="M114.83203125,851L114.83203125,854.6666666666666C114.83203125,858.3333333333334,114.83203125,865.6666666666666,114.83203125,873C114.83203125,880.3333333333334,114.83203125,887.6666666666666,114.83203125,891.3333333333334L114.83203125,895" style="stroke: rgb(0, 0, 0); stroke-width: 1px; fill: none; marker-end: url(&quot;#arrowhead&quot;);"/><path id="edge-model/quant_flatten/Reshape;model/quant_average_pooling1d/MovingAvgQuantize/FakeQuantWithMinMaxVars&#10;22" class="edge-path" d="M114.83203125,938L114.83203125,941.6666666666666C114.83203125,945.3333333333334,114.83203125,952.6666666666666,114.83203125,960C114.83203125,967.3333333333334,114.83203125,974.6666666666666,114.83203125,978.3333333333334L114.83203125,982" style="stroke: rgb(0, 0, 0); stroke-width: 1px; fill: none; marker-end: url(&quot;#arrowhead&quot;);"/><path id="edge-model/quant_dense/MatMul;model/quant_dense/Relu;model/quant_dense/BiasAdd&#10;25" class="edge-path" d="M114.83203125,1062L114.83203125,1065.6666666666667C114.83203125,1069.3333333333333,114.83203125,1076.6666666666667,114.83203125,1084C114.83203125,1091.3333333333333,114.83203125,1098.6666666666667,114.83203125,1102.3333333333333L114.83203125,1106" style="stroke: rgb(0, 0, 0); stroke-width: 1px; fill: none; marker-end: url(&quot;#arrowhead&quot;);"/><path id="edge-model/quant_dense_1/MatMul;model/quant_dense_1/Relu;model/quant_dense_1/BiasAdd&#10;28" class="edge-path" d="M114.83203125,1186L114.83203125,1189.6666666666667C114.83203125,1193.3333333333333,114.83203125,1200.6666666666667,114.83203125,1208C114.83203125,1215.3333333333333,114.83203125,1222.6666666666667,114.83203125,1226.3333333333333L114.83203125,1230" style="stroke: rgb(0, 0, 0); stroke-width: 1px; fill: none; marker-end: url(&quot;#arrowhead&quot;);"/><path id="edge-model/quant_dense_2/MatMul;model/quant_dense_2/BiasAdd&#10;31" class="edge-path" d="M114.83203125,1287L114.83203125,1290.6666666666667C114.83203125,1294.3333333333333,114.83203125,1301.6666666666667,114.83203125,1309C114.83203125,1316.3333333333333,114.83203125,1323.6666666666667,114.83203125,1327.3333333333333L114.83203125,1331" style="stroke: rgb(0, 0, 0); stroke-width: 1px; fill: none; marker-end: url(&quot;#arrowhead&quot;);"/><path id="edge-StatefulPartitionedCall:0&#10;32" class="edge-path" d="M114.83203125,1354L114.83203125,1357.6666666666667C114.83203125,1361.3333333333333,114.83203125,1368.6666666666667,114.83203125,1376C114.83203125,1383.3333333333333,114.83203125,1390.6666666666667,114.83203125,1394.3333333333333L114.83203125,1398" style="stroke: rgb(0, 0, 0); stroke-width: 1px; fill: none; marker-end: url(&quot;#arrowhead&quot;);"/></g><g id="edge-labels" class="edge-labels"><text class="edge-label" id="edge-label-edge-serving_default_input_layer:0&#10;0" style="opacity: 1; font-family: -apple-system, BlinkMacSystemFont, &quot;Segoe WPC&quot;, &quot;Segoe UI&quot;, Ubuntu, &quot;Droid Sans&quot;, sans-serif, &quot;PingFang SC&quot;; font-size: 10px;" transform="translate(119.83203125,48)"><tspan xml:space="preserve" dy="1em" x="1">?×50×1×31</tspan></text><text class="edge-label" id="edge-label-edge-model/quantize_layer/AllValuesQuantize/FakeQuantWithMinMaxVars;model/quantize_layer/AllValuesQuantize/FakeQuantWithMinMaxVars/ReadVariableOp;model/quantize_layer/AllValuesQuantize/FakeQuantWithMinMaxVars/ReadVariableOp_1&#10;2" style="opacity: 1; font-family: -apple-system, BlinkMacSystemFont, &quot;Segoe WPC&quot;, &quot;Segoe UI&quot;, Ubuntu, &quot;Droid Sans&quot;, sans-serif, &quot;PingFang SC&quot;; font-size: 10px;" transform="translate(119.83203125,125)"><tspan xml:space="preserve" dy="1em" x="1">?×50×1×31</tspan></text><text class="edge-label" id="edge-label-edge-model/quant_max_pooling1d/MaxPool&#10;3" style="opacity: 1; font-family: -apple-system, BlinkMacSystemFont, &quot;Segoe WPC&quot;, &quot;Segoe UI&quot;, Ubuntu, &quot;Droid Sans&quot;, sans-serif, &quot;PingFang SC&quot;; font-size: 10px;" transform="translate(119.83203125,192)"><tspan xml:space="preserve" dy="1em" x="1">?×25×1×31</tspan></text><text class="edge-label" id="edge-label-edge-model/quant_depthwise_conv1d/BiasAdd;model/quant_depthwise_conv1d/depthwise;model/quant_depthwise_conv1d/BiasAdd/ReadVariableOp1&#10;6" style="opacity: 1; font-family: -apple-system, BlinkMacSystemFont, &quot;Segoe WPC&quot;, &quot;Segoe UI&quot;, Ubuntu, &quot;Droid Sans&quot;, sans-serif, &quot;PingFang SC&quot;; font-size: 10px;" transform="translate(119.83203125,293)"><tspan xml:space="preserve" dy="1em" x="1">?×13×1×31</tspan></text><text class="edge-label" id="edge-label-edge-model/quant_re_lu/Relu;model/quant_conv1d/BiasAdd;model/quant_conv1d/Conv2D;model/quant_conv1d/BiasAdd/ReadVariableOp1&#10;9" style="opacity: 1; font-family: -apple-system, BlinkMacSystemFont, &quot;Segoe WPC&quot;, &quot;Segoe UI&quot;, Ubuntu, &quot;Droid Sans&quot;, sans-serif, &quot;PingFang SC&quot;; font-size: 10px;" transform="translate(181.2890625,479)"><tspan xml:space="preserve" dy="1em" x="1">?×13×1×77</tspan></text><text class="edge-label" id="edge-label-edge-model/quant_re_lu/Relu;model/quant_conv1d/BiasAdd;model/quant_conv1d/Conv2D;model/quant_conv1d/BiasAdd/ReadVariableOp1&#10;9" style="opacity: 1; font-family: -apple-system, BlinkMacSystemFont, &quot;Segoe WPC&quot;, &quot;Segoe UI&quot;, Ubuntu, &quot;Droid Sans&quot;, sans-serif, &quot;PingFang SC&quot;; font-size: 10px;" transform="translate(58.375,417)"><tspan xml:space="preserve" dy="1em" x="1">?×13×1×77</tspan></text><text class="edge-label" id="edge-label-edge-model/quant_re_lu_1/Relu;model/quant_batch_normalization/FusedBatchNormV3;model/quant_depthwise_conv1d_1/BiasAdd;model/quant_depthwise_conv1d_1/depthwise;model/quant_depthwise_conv1d_1/BiasAdd/ReadVariableOp1&#10;12" style="opacity: 1; font-family: -apple-system, BlinkMacSystemFont, &quot;Segoe WPC&quot;, &quot;Segoe UI&quot;, Ubuntu, &quot;Droid Sans&quot;, sans-serif, &quot;PingFang SC&quot;; font-size: 10px;" transform="translate(181.2890625,665)"><tspan xml:space="preserve" dy="1em" x="1">?×7×1×77</tspan></text><text class="edge-label" id="edge-label-edge-model/quant_re_lu_2/Relu;model/quant_depthwise_conv1d_2/BiasAdd;model/quant_depthwise_conv1d_2/depthwise;model/quant_depthwise_conv1d_2/BiasAdd/ReadVariableOp1&#10;15" style="opacity: 1; font-family: -apple-system, BlinkMacSystemFont, &quot;Segoe WPC&quot;, &quot;Segoe UI&quot;, Ubuntu, &quot;Droid Sans&quot;, sans-serif, &quot;PingFang SC&quot;; font-size: 10px;" transform="translate(58.375,541)"><tspan xml:space="preserve" dy="1em" x="1">?×7×1×77</tspan></text><text class="edge-label" id="edge-label-edge-model/quant_re_lu_3/Relu;model/quant_conv1d_1/BiasAdd;model/quant_conv1d_1/Conv2D;model/quant_conv1d_1/BiasAdd/ReadVariableOp1&#10;18" style="opacity: 1; font-family: -apple-system, BlinkMacSystemFont, &quot;Segoe WPC&quot;, &quot;Segoe UI&quot;, Ubuntu, &quot;Droid Sans&quot;, sans-serif, &quot;PingFang SC&quot;; font-size: 10px;" transform="translate(58.375,665)"><tspan xml:space="preserve" dy="1em" x="1">?×7×1×77</tspan></text><text class="edge-label" id="edge-label-edge-model/quant_add/add&#10;19" style="opacity: 1; font-family: -apple-system, BlinkMacSystemFont, &quot;Segoe WPC&quot;, &quot;Segoe UI&quot;, Ubuntu, &quot;Droid Sans&quot;, sans-serif, &quot;PingFang SC&quot;; font-size: 10px;" transform="translate(119.83203125,732)"><tspan xml:space="preserve" dy="1em" x="1">?×7×1×77</tspan></text><text class="edge-label" id="edge-label-edge-model/quant_average_pooling1d/AvgPool&#10;20" style="opacity: 1; font-family: -apple-system, BlinkMacSystemFont, &quot;Segoe WPC&quot;, &quot;Segoe UI&quot;, Ubuntu, &quot;Droid Sans&quot;, sans-serif, &quot;PingFang SC&quot;; font-size: 10px;" transform="translate(119.83203125,799)"><tspan xml:space="preserve" dy="1em" x="1">?×4×1×77</tspan></text><text class="edge-label" id="edge-label-edge-model/quant_average_pooling1d/AvgPool1&#10;21" style="opacity: 1; font-family: -apple-system, BlinkMacSystemFont, &quot;Segoe WPC&quot;, &quot;Segoe UI&quot;, Ubuntu, &quot;Droid Sans&quot;, sans-serif, &quot;PingFang SC&quot;; font-size: 10px;" transform="translate(119.83203125,866)"><tspan xml:space="preserve" dy="1em" x="1">?×4×1×77</tspan></text><text class="edge-label" id="edge-label-edge-model/quant_flatten/Reshape;model/quant_average_pooling1d/MovingAvgQuantize/FakeQuantWithMinMaxVars&#10;22" style="opacity: 1; font-family: -apple-system, BlinkMacSystemFont, &quot;Segoe WPC&quot;, &quot;Segoe UI&quot;, Ubuntu, &quot;Droid Sans&quot;, sans-serif, &quot;PingFang SC&quot;; font-size: 10px;" transform="translate(119.83203125,953)"><tspan xml:space="preserve" dy="1em" x="1">?×308</tspan></text><text class="edge-label" id="edge-label-edge-model/quant_dense/MatMul;model/quant_dense/Relu;model/quant_dense/BiasAdd&#10;25" style="opacity: 1; font-family: -apple-system, BlinkMacSystemFont, &quot;Segoe WPC&quot;, &quot;Segoe UI&quot;, Ubuntu, &quot;Droid Sans&quot;, sans-serif, &quot;PingFang SC&quot;; font-size: 10px;" transform="translate(119.83203125,1077)"><tspan xml:space="preserve" dy="1em" x="1">?×223</tspan></text><text class="edge-label" id="edge-label-edge-model/quant_dense_1/MatMul;model/quant_dense_1/Relu;model/quant_dense_1/BiasAdd&#10;28" style="opacity: 1; font-family: -apple-system, BlinkMacSystemFont, &quot;Segoe WPC&quot;, &quot;Segoe UI&quot;, Ubuntu, &quot;Droid Sans&quot;, sans-serif, &quot;PingFang SC&quot;; font-size: 10px;" transform="translate(119.83203125,1201)"><tspan xml:space="preserve" dy="1em" x="1">?×23</tspan></text><text class="edge-label" id="edge-label-edge-model/quant_dense_2/MatMul;model/quant_dense_2/BiasAdd&#10;31" style="opacity: 1; font-family: -apple-system, BlinkMacSystemFont, &quot;Segoe WPC&quot;, &quot;Segoe UI&quot;, Ubuntu, &quot;Droid Sans&quot;, sans-serif, &quot;PingFang SC&quot;; font-size: 10px;" transform="translate(119.83203125,1302)"><tspan xml:space="preserve" dy="1em" x="1">?×3</tspan></text><text class="edge-label" id="edge-label-edge-StatefulPartitionedCall:0&#10;32" style="opacity: 1; font-family: -apple-system, BlinkMacSystemFont, &quot;Segoe WPC&quot;, &quot;Segoe UI&quot;, Ubuntu, &quot;Droid Sans&quot;, sans-serif, &quot;PingFang SC&quot;; font-size: 10px;" transform="translate(119.83203125,1369)"><tspan xml:space="preserve" dy="1em" x="1">?×3</tspan></text></g><g id="nodes" class="nodes"><g id="input-name-input_layer" class="node graph-input" style="" transform="translate(80.72705078125,0)"><g class="node-item graph-item-input" transform="translate(0,0)"><path d="M5,0h58.2099609375a5,5 0 0 1 5,5v13a5,5 0 0 1 -5,5h-58.2099609375a5,5 0 0 1 -5,-5v-13a5,5 0 0 1 5,-5z" style="stroke: rgb(0, 0, 0); fill: rgb(238, 238, 238); stroke-width: 0;"/><text x="7" y="16" style="font-family: -apple-system, BlinkMacSystemFont, &quot;Segoe WPC&quot;, &quot;Segoe UI&quot;, Ubuntu, &quot;Droid Sans&quot;, sans-serif, &quot;PingFang SC&quot;; font-size: 11px; text-rendering: geometricprecision; user-select: none;">input_layer</text><title>float32[-1,50,1,31]</title></g><path class="node node-border" d="M5,0h58.2099609375a5,5 0 0 1 5,5v13a5,5 0 0 1 -5,5h-58.2099609375a5,5 0 0 1 -5,-5v-13a5,5 0 0 1 5,-5z" style="stroke: rgb(51, 51, 51); fill: none; stroke-width: 1px;"/></g><g id="node-id-0" class="node graph-node" style="" transform="translate(85.9794921875,87)"><g class="node-item node-item-type node-item-type-quantization" transform="translate(0,0)"><path d="M5,0h47.705078125a5,5 0 0 1 5,5v13a5,5 0 0 1 -5,5h-47.705078125a5,5 0 0 1 -5,-5v-13a5,5 0 0 1 5,-5z" style="stroke: rgb(0, 0, 0); fill: rgb(80, 40, 0); stroke-width: 0;"/><text x="7" y="16" style="font-family: -apple-system, BlinkMacSystemFont, &quot;Segoe WPC&quot;, &quot;Segoe UI&quot;, Ubuntu, &quot;Droid Sans&quot;, sans-serif, &quot;PingFang SC&quot;; font-size: 11px; text-rendering: geometricprecision; user-select: none; fill: rgb(255, 255, 255);">Quantize</text><title>0</title></g><path class="node node-border" d="M5,0h47.705078125a5,5 0 0 1 5,5v13a5,5 0 0 1 -5,5h-47.705078125a5,5 0 0 1 -5,-5v-13a5,5 0 0 1 5,-5z" style="stroke: rgb(51, 51, 51); fill: none; stroke-width: 1px;"/></g><g id="node-id-1" class="node graph-node" style="" transform="translate(79.9521484375,154)"><g class="node-item node-item-type node-item-type-pool" transform="translate(0,0)"><path d="M5,0h59.759765625a5,5 0 0 1 5,5v13a5,5 0 0 1 -5,5h-59.759765625a5,5 0 0 1 -5,-5v-13a5,5 0 0 1 5,-5z" style="stroke: rgb(0, 0, 0); fill: rgb(51, 85, 51); stroke-width: 0;"/><text x="7" y="16" style="font-family: -apple-system, BlinkMacSystemFont, &quot;Segoe WPC&quot;, &quot;Segoe UI&quot;, Ubuntu, &quot;Droid Sans&quot;, sans-serif, &quot;PingFang SC&quot;; font-size: 11px; text-rendering: geometricprecision; user-select: none; fill: rgb(255, 255, 255);">MaxPool2D</text><title>1</title></g><path class="node node-border" d="M5,0h59.759765625a5,5 0 0 1 5,5v13a5,5 0 0 1 -5,5h-59.759765625a5,5 0 0 1 -5,-5v-13a5,5 0 0 1 5,-5z" style="stroke: rgb(51, 51, 51); fill: none; stroke-width: 1px;"/></g><g id="node-id-2" class="node graph-node" style="" transform="translate(61.45703125,221)"><g class="node-item node-item-type node-item-type-layer" transform="translate(0,0)"><path d="M5,0h96.75a5,5 0 0 1 5,5v18a0,0 0 0 1 0,0h-106.75a0,0 0 0 1 0,0v-18a5,5 0 0 1 5,-5z" style="stroke: rgb(0, 0, 0); fill: rgb(51, 85, 136); stroke-width: 0;"/><text x="7" y="16" style="font-family: -apple-system, BlinkMacSystemFont, &quot;Segoe WPC&quot;, &quot;Segoe UI&quot;, Ubuntu, &quot;Droid Sans&quot;, sans-serif, &quot;PingFang SC&quot;; font-size: 11px; text-rendering: geometricprecision; user-select: none; fill: rgb(255, 255, 255);">DepthwiseConv2D</text><title>2</title></g><g class="node-argument-list" transform="translate(0,23)"><path d="M0,0h106.75a0,0 0 0 1 0,0v29a5,5 0 0 1 -5,5h-96.75a5,5 0 0 1 -5,-5v-29a0,0 0 0 1 0,0z" style="stroke: rgb(0, 0, 0); fill: rgb(255, 255, 255); stroke-width: 0;"/><g class="node-argument"><rect rx="3" ry="3" x="3" y="3" width="100.75" height="14" style="fill: transparent;"/><text xml:space="preserve" x="6" y="14" style="font-family: -apple-system, BlinkMacSystemFont, &quot;Segoe WPC&quot;, &quot;Segoe UI&quot;, Ubuntu, &quot;Droid Sans&quot;, sans-serif, &quot;PingFang SC&quot;; font-size: 9px; font-weight: normal; text-rendering: geometricprecision; user-select: none;"><title>int8[1,3,1,31]</title><tspan style="font-weight: bold;">weights</tspan><tspan>〈1×3×1×31〉</tspan></text></g><g class="node-argument"><rect rx="3" ry="3" x="3" y="17" width="100.75" height="14" style="fill: transparent;"/><text xml:space="preserve" x="6" y="28" style="font-family: -apple-system, BlinkMacSystemFont, &quot;Segoe WPC&quot;, &quot;Segoe UI&quot;, Ubuntu, &quot;Droid Sans&quot;, sans-serif, &quot;PingFang SC&quot;; font-size: 9px; font-weight: normal; text-rendering: geometricprecision; user-select: none;"><title>int32[31]</title><tspan style="font-weight: bold;">bias</tspan><tspan>〈31〉</tspan></text></g><line class="node" x1="0" x2="106.75" y1="0" y2="0" style="stroke: rgb(51, 51, 51); fill: none; stroke-width: 1px;"/></g><path class="node node-border" d="M5,0h96.75a5,5 0 0 1 5,5v47a5,5 0 0 1 -5,5h-96.75a5,5 0 0 1 -5,-5v-47a5,5 0 0 1 5,-5z" style="stroke: rgb(51, 51, 51); fill: none; stroke-width: 1px;"/></g><g id="node-id-3" class="node graph-node" style="" transform="translate(65.29296875,322)"><g class="node-item node-item-type node-item-type-layer" transform="translate(0,0)"><path d="M5,0h89.078125a5,5 0 0 1 5,5v18a0,0 0 0 1 0,0h-99.078125a0,0 0 0 1 0,0v-18a5,5 0 0 1 5,-5z" style="stroke: rgb(0, 0, 0); fill: rgb(51, 85, 136); stroke-width: 0;"/><text x="7" y="16" style="font-family: -apple-system, BlinkMacSystemFont, &quot;Segoe WPC&quot;, &quot;Segoe UI&quot;, Ubuntu, &quot;Droid Sans&quot;, sans-serif, &quot;PingFang SC&quot;; font-size: 11px; text-rendering: geometricprecision; user-select: none; fill: rgb(255, 255, 255);">Conv2D</text><title>3</title></g><g class="node-argument-list" transform="translate(0,23)"><path d="M0,0h99.078125a0,0 0 0 1 0,0v34a0,0 0 0 1 0,0h-99.078125a0,0 0 0 1 0,0v-34a0,0 0 0 1 0,0z" style="stroke: rgb(0, 0, 0); fill: rgb(255, 255, 255); stroke-width: 0;"/><g class="node-argument"><rect rx="3" ry="3" x="3" y="3" width="93.078125" height="14" style="fill: transparent;"/><text xml:space="preserve" x="6" y="14" style="font-family: -apple-system, BlinkMacSystemFont, &quot;Segoe WPC&quot;, &quot;Segoe UI&quot;, Ubuntu, &quot;Droid Sans&quot;, sans-serif, &quot;PingFang SC&quot;; font-size: 9px; font-weight: normal; text-rendering: geometricprecision; user-select: none;"><title>int8[77,1,1,31]</title><tspan style="font-weight: bold;">filter</tspan><tspan>〈77×1×1×31〉</tspan></text></g><g class="node-argument"><rect rx="3" ry="3" x="3" y="17" width="93.078125" height="14" style="fill: transparent;"/><text xml:space="preserve" x="6" y="28" style="font-family: -apple-system, BlinkMacSystemFont, &quot;Segoe WPC&quot;, &quot;Segoe UI&quot;, Ubuntu, &quot;Droid Sans&quot;, sans-serif, &quot;PingFang SC&quot;; font-size: 9px; font-weight: normal; text-rendering: geometricprecision; user-select: none;"><title>int32[77]</title><tspan style="font-weight: bold;">bias</tspan><tspan>〈77〉</tspan></text></g><line class="node" x1="0" x2="99.078125" y1="0" y2="0" style="stroke: rgb(51, 51, 51); fill: none; stroke-width: 1px;"/></g><g class="node-item node-item-type node-item-type-activation" transform="translate(0,57)"><path d="M0,0h99.078125a0,0 0 0 1 0,0v18a5,5 0 0 1 -5,5h-89.078125a5,5 0 0 1 -5,-5v-18a0,0 0 0 1 0,0z" style="stroke: rgb(0, 0, 0); fill: rgb(112, 41, 33); stroke-width: 0;"/><text x="7" y="16" style="font-family: -apple-system, BlinkMacSystemFont, &quot;Segoe WPC&quot;, &quot;Segoe UI&quot;, Ubuntu, &quot;Droid Sans&quot;, sans-serif, &quot;PingFang SC&quot;; font-size: 11px; text-rendering: geometricprecision; user-select: none; fill: rgb(255, 255, 255);">Relu</text></g><line class="node" x1="0" x2="99.078125" y1="57" y2="57" style="stroke: rgb(51, 51, 51); fill: none; stroke-width: 1px;"/><path class="node node-border" d="M5,0h89.078125a5,5 0 0 1 5,5v70a5,5 0 0 1 -5,5h-89.078125a5,5 0 0 1 -5,-5v-70a5,5 0 0 1 5,-5z" style="stroke: rgb(51, 51, 51); fill: none; stroke-width: 1px;"/></g><g id="node-id-5" class="node graph-node" style="" transform="translate(122.9140625,570)"><g class="node-item node-item-type node-item-type-layer" transform="translate(0,0)"><path d="M5,0h96.75a5,5 0 0 1 5,5v18a0,0 0 0 1 0,0h-106.75a0,0 0 0 1 0,0v-18a5,5 0 0 1 5,-5z" style="stroke: rgb(0, 0, 0); fill: rgb(51, 85, 136); stroke-width: 0;"/><text x="7" y="16" style="font-family: -apple-system, BlinkMacSystemFont, &quot;Segoe WPC&quot;, &quot;Segoe UI&quot;, Ubuntu, &quot;Droid Sans&quot;, sans-serif, &quot;PingFang SC&quot;; font-size: 11px; text-rendering: geometricprecision; user-select: none; fill: rgb(255, 255, 255);">DepthwiseConv2D</text><title>4</title></g><g class="node-argument-list" transform="translate(0,23)"><path d="M0,0h106.75a0,0 0 0 1 0,0v34a0,0 0 0 1 0,0h-106.75a0,0 0 0 1 0,0v-34a0,0 0 0 1 0,0z" style="stroke: rgb(0, 0, 0); fill: rgb(255, 255, 255); stroke-width: 0;"/><g class="node-argument"><rect rx="3" ry="3" x="3" y="3" width="100.75" height="14" style="fill: transparent;"/><text xml:space="preserve" x="6" y="14" style="font-family: -apple-system, BlinkMacSystemFont, &quot;Segoe WPC&quot;, &quot;Segoe UI&quot;, Ubuntu, &quot;Droid Sans&quot;, sans-serif, &quot;PingFang SC&quot;; font-size: 9px; font-weight: normal; text-rendering: geometricprecision; user-select: none;"><title>int8[1,3,1,77]</title><tspan style="font-weight: bold;">weights</tspan><tspan>〈1×3×1×77〉</tspan></text></g><g class="node-argument"><rect rx="3" ry="3" x="3" y="17" width="100.75" height="14" style="fill: transparent;"/><text xml:space="preserve" x="6" y="28" style="font-family: -apple-system, BlinkMacSystemFont, &quot;Segoe WPC&quot;, &quot;Segoe UI&quot;, Ubuntu, &quot;Droid Sans&quot;, sans-serif, &quot;PingFang SC&quot;; font-size: 9px; font-weight: normal; text-rendering: geometricprecision; user-select: none;"><title>int32[77]</title><tspan style="font-weight: bold;">bias</tspan><tspan>〈77〉</tspan></text></g><line class="node" x1="0" x2="106.75" y1="0" y2="0" style="stroke: rgb(51, 51, 51); fill: none; stroke-width: 1px;"/></g><g class="node-item node-item-type node-item-type-activation" transform="translate(0,57)"><path d="M0,0h106.75a0,0 0 0 1 0,0v18a5,5 0 0 1 -5,5h-96.75a5,5 0 0 1 -5,-5v-18a0,0 0 0 1 0,0z" style="stroke: rgb(0, 0, 0); fill: rgb(112, 41, 33); stroke-width: 0;"/><text x="7" y="16" style="font-family: -apple-system, BlinkMacSystemFont, &quot;Segoe WPC&quot;, &quot;Segoe UI&quot;, Ubuntu, &quot;Droid Sans&quot;, sans-serif, &quot;PingFang SC&quot;; font-size: 11px; text-rendering: geometricprecision; user-select: none; fill: rgb(255, 255, 255);">Relu</text></g><line class="node" x1="0" x2="106.75" y1="57" y2="57" style="stroke: rgb(51, 51, 51); fill: none; stroke-width: 1px;"/><path class="node node-border" d="M5,0h96.75a5,5 0 0 1 5,5v70a5,5 0 0 1 -5,5h-96.75a5,5 0 0 1 -5,-5v-70a5,5 0 0 1 5,-5z" style="stroke: rgb(51, 51, 51); fill: none; stroke-width: 1px;"/></g><g id="node-id-7" class="node graph-node" style="" transform="translate(0,446)"><g class="node-item node-item-type node-item-type-layer" transform="translate(0,0)"><path d="M5,0h96.75a5,5 0 0 1 5,5v18a0,0 0 0 1 0,0h-106.75a0,0 0 0 1 0,0v-18a5,5 0 0 1 5,-5z" style="stroke: rgb(0, 0, 0); fill: rgb(51, 85, 136); stroke-width: 0;"/><text x="7" y="16" style="font-family: -apple-system, BlinkMacSystemFont, &quot;Segoe WPC&quot;, &quot;Segoe UI&quot;, Ubuntu, &quot;Droid Sans&quot;, sans-serif, &quot;PingFang SC&quot;; font-size: 11px; text-rendering: geometricprecision; user-select: none; fill: rgb(255, 255, 255);">DepthwiseConv2D</text><title>5</title></g><g class="node-argument-list" transform="translate(0,23)"><path d="M0,0h106.75a0,0 0 0 1 0,0v34a0,0 0 0 1 0,0h-106.75a0,0 0 0 1 0,0v-34a0,0 0 0 1 0,0z" style="stroke: rgb(0, 0, 0); fill: rgb(255, 255, 255); stroke-width: 0;"/><g class="node-argument"><rect rx="3" ry="3" x="3" y="3" width="100.75" height="14" style="fill: transparent;"/><text xml:space="preserve" x="6" y="14" style="font-family: -apple-system, BlinkMacSystemFont, &quot;Segoe WPC&quot;, &quot;Segoe UI&quot;, Ubuntu, &quot;Droid Sans&quot;, sans-serif, &quot;PingFang SC&quot;; font-size: 9px; font-weight: normal; text-rendering: geometricprecision; user-select: none;"><title>int8[1,5,1,77]</title><tspan style="font-weight: bold;">weights</tspan><tspan>〈1×5×1×77〉</tspan></text></g><g class="node-argument"><rect rx="3" ry="3" x="3" y="17" width="100.75" height="14" style="fill: transparent;"/><text xml:space="preserve" x="6" y="28" style="font-family: -apple-system, BlinkMacSystemFont, &quot;Segoe WPC&quot;, &quot;Segoe UI&quot;, Ubuntu, &quot;Droid Sans&quot;, sans-serif, &quot;PingFang SC&quot;; font-size: 9px; font-weight: normal; text-rendering: geometricprecision; user-select: none;"><title>int32[77]</title><tspan style="font-weight: bold;">bias</tspan><tspan>〈77〉</tspan></text></g><line class="node" x1="0" x2="106.75" y1="0" y2="0" style="stroke: rgb(51, 51, 51); fill: none; stroke-width: 1px;"/></g><g class="node-item node-item-type node-item-type-activation" transform="translate(0,57)"><path d="M0,0h106.75a0,0 0 0 1 0,0v18a5,5 0 0 1 -5,5h-96.75a5,5 0 0 1 -5,-5v-18a0,0 0 0 1 0,0z" style="stroke: rgb(0, 0, 0); fill: rgb(112, 41, 33); stroke-width: 0;"/><text x="7" y="16" style="font-family: -apple-system, BlinkMacSystemFont, &quot;Segoe WPC&quot;, &quot;Segoe UI&quot;, Ubuntu, &quot;Droid Sans&quot;, sans-serif, &quot;PingFang SC&quot;; font-size: 11px; text-rendering: geometricprecision; user-select: none; fill: rgb(255, 255, 255);">Relu</text></g><line class="node" x1="0" x2="106.75" y1="57" y2="57" style="stroke: rgb(51, 51, 51); fill: none; stroke-width: 1px;"/><path class="node node-border" d="M5,0h96.75a5,5 0 0 1 5,5v70a5,5 0 0 1 -5,5h-96.75a5,5 0 0 1 -5,-5v-70a5,5 0 0 1 5,-5z" style="stroke: rgb(51, 51, 51); fill: none; stroke-width: 1px;"/></g><g id="node-id-9" class="node graph-node" style="" transform="translate(3.8359375,570)"><g class="node-item node-item-type node-item-type-layer" transform="translate(0,0)"><path d="M5,0h89.078125a5,5 0 0 1 5,5v18a0,0 0 0 1 0,0h-99.078125a0,0 0 0 1 0,0v-18a5,5 0 0 1 5,-5z" style="stroke: rgb(0, 0, 0); fill: rgb(51, 85, 136); stroke-width: 0;"/><text x="7" y="16" style="font-family: -apple-system, BlinkMacSystemFont, &quot;Segoe WPC&quot;, &quot;Segoe UI&quot;, Ubuntu, &quot;Droid Sans&quot;, sans-serif, &quot;PingFang SC&quot;; font-size: 11px; text-rendering: geometricprecision; user-select: none; fill: rgb(255, 255, 255);">Conv2D</text><title>6</title></g><g class="node-argument-list" transform="translate(0,23)"><path d="M0,0h99.078125a0,0 0 0 1 0,0v34a0,0 0 0 1 0,0h-99.078125a0,0 0 0 1 0,0v-34a0,0 0 0 1 0,0z" style="stroke: rgb(0, 0, 0); fill: rgb(255, 255, 255); stroke-width: 0;"/><g class="node-argument"><rect rx="3" ry="3" x="3" y="3" width="93.078125" height="14" style="fill: transparent;"/><text xml:space="preserve" x="6" y="14" style="font-family: -apple-system, BlinkMacSystemFont, &quot;Segoe WPC&quot;, &quot;Segoe UI&quot;, Ubuntu, &quot;Droid Sans&quot;, sans-serif, &quot;PingFang SC&quot;; font-size: 9px; font-weight: normal; text-rendering: geometricprecision; user-select: none;"><title>int8[77,1,1,77]</title><tspan style="font-weight: bold;">filter</tspan><tspan>〈77×1×1×77〉</tspan></text></g><g class="node-argument"><rect rx="3" ry="3" x="3" y="17" width="93.078125" height="14" style="fill: transparent;"/><text xml:space="preserve" x="6" y="28" style="font-family: -apple-system, BlinkMacSystemFont, &quot;Segoe WPC&quot;, &quot;Segoe UI&quot;, Ubuntu, &quot;Droid Sans&quot;, sans-serif, &quot;PingFang SC&quot;; font-size: 9px; font-weight: normal; text-rendering: geometricprecision; user-select: none;"><title>int32[77]</title><tspan style="font-weight: bold;">bias</tspan><tspan>〈77〉</tspan></text></g><line class="node" x1="0" x2="99.078125" y1="0" y2="0" style="stroke: rgb(51, 51, 51); fill: none; stroke-width: 1px;"/></g><g class="node-item node-item-type node-item-type-activation" transform="translate(0,57)"><path d="M0,0h99.078125a0,0 0 0 1 0,0v18a5,5 0 0 1 -5,5h-89.078125a5,5 0 0 1 -5,-5v-18a0,0 0 0 1 0,0z" style="stroke: rgb(0, 0, 0); fill: rgb(112, 41, 33); stroke-width: 0;"/><text x="7" y="16" style="font-family: -apple-system, BlinkMacSystemFont, &quot;Segoe WPC&quot;, &quot;Segoe UI&quot;, Ubuntu, &quot;Droid Sans&quot;, sans-serif, &quot;PingFang SC&quot;; font-size: 11px; text-rendering: geometricprecision; user-select: none; fill: rgb(255, 255, 255);">Relu</text></g><line class="node" x1="0" x2="99.078125" y1="57" y2="57" style="stroke: rgb(51, 51, 51); fill: none; stroke-width: 1px;"/><path class="node node-border" d="M5,0h89.078125a5,5 0 0 1 5,5v70a5,5 0 0 1 -5,5h-89.078125a5,5 0 0 1 -5,-5v-70a5,5 0 0 1 5,-5z" style="stroke: rgb(51, 51, 51); fill: none; stroke-width: 1px;"/></g><g id="node-id-11" class="node graph-node" style="" transform="translate(97.30078125,694)"><g class="node-item node-item-type" transform="translate(0,0)"><path d="M5,0h25.0625a5,5 0 0 1 5,5v13a5,5 0 0 1 -5,5h-25.0625a5,5 0 0 1 -5,-5v-13a5,5 0 0 1 5,-5z" style="stroke: rgb(0, 0, 0); fill: rgb(51, 51, 51); stroke-width: 0;"/><text x="7" y="16" style="font-family: -apple-system, BlinkMacSystemFont, &quot;Segoe WPC&quot;, &quot;Segoe UI&quot;, Ubuntu, &quot;Droid Sans&quot;, sans-serif, &quot;PingFang SC&quot;; font-size: 11px; text-rendering: geometricprecision; user-select: none; fill: rgb(255, 255, 255);">Add</text><title>7</title></g><path class="node node-border" d="M5,0h25.0625a5,5 0 0 1 5,5v13a5,5 0 0 1 -5,5h-25.0625a5,5 0 0 1 -5,-5v-13a5,5 0 0 1 5,-5z" style="stroke: rgb(51, 51, 51); fill: none; stroke-width: 1px;"/></g><g id="node-id-12" class="node graph-node" style="" transform="translate(69.937255859375,761)"><g class="node-item node-item-type node-item-type-pool" transform="translate(0,0)"><path d="M5,0h79.78955078125a5,5 0 0 1 5,5v13a5,5 0 0 1 -5,5h-79.78955078125a5,5 0 0 1 -5,-5v-13a5,5 0 0 1 5,-5z" style="stroke: rgb(0, 0, 0); fill: rgb(51, 85, 51); stroke-width: 0;"/><text x="7" y="16" style="font-family: -apple-system, BlinkMacSystemFont, &quot;Segoe WPC&quot;, &quot;Segoe UI&quot;, Ubuntu, &quot;Droid Sans&quot;, sans-serif, &quot;PingFang SC&quot;; font-size: 11px; text-rendering: geometricprecision; user-select: none; fill: rgb(255, 255, 255);">AveragePool2D</text><title>8</title></g><path class="node node-border" d="M5,0h79.78955078125a5,5 0 0 1 5,5v13a5,5 0 0 1 -5,5h-79.78955078125a5,5 0 0 1 -5,-5v-13a5,5 0 0 1 5,-5z" style="stroke: rgb(51, 51, 51); fill: none; stroke-width: 1px;"/></g><g id="node-id-13" class="node graph-node" style="" transform="translate(85.9794921875,828)"><g class="node-item node-item-type node-item-type-quantization" transform="translate(0,0)"><path d="M5,0h47.705078125a5,5 0 0 1 5,5v13a5,5 0 0 1 -5,5h-47.705078125a5,5 0 0 1 -5,-5v-13a5,5 0 0 1 5,-5z" style="stroke: rgb(0, 0, 0); fill: rgb(80, 40, 0); stroke-width: 0;"/><text x="7" y="16" style="font-family: -apple-system, BlinkMacSystemFont, &quot;Segoe WPC&quot;, &quot;Segoe UI&quot;, Ubuntu, &quot;Droid Sans&quot;, sans-serif, &quot;PingFang SC&quot;; font-size: 11px; text-rendering: geometricprecision; user-select: none; fill: rgb(255, 255, 255);">Quantize</text><title>9</title></g><path class="node node-border" d="M5,0h47.705078125a5,5 0 0 1 5,5v13a5,5 0 0 1 -5,5h-47.705078125a5,5 0 0 1 -5,-5v-13a5,5 0 0 1 5,-5z" style="stroke: rgb(51, 51, 51); fill: none; stroke-width: 1px;"/></g><g id="node-id-14" class="node graph-node" style="" transform="translate(77.33203125,895)"><g class="node-item node-item-type node-item-type-shape" transform="translate(0,0)"><path d="M5,0h65a5,5 0 0 1 5,5v18a0,0 0 0 1 0,0h-75a0,0 0 0 1 0,0v-18a5,5 0 0 1 5,-5z" style="stroke: rgb(0, 0, 0); fill: rgb(108, 79, 71); stroke-width: 0;"/><text x="7" y="16" style="font-family: -apple-system, BlinkMacSystemFont, &quot;Segoe WPC&quot;, &quot;Segoe UI&quot;, Ubuntu, &quot;Droid Sans&quot;, sans-serif, &quot;PingFang SC&quot;; font-size: 11px; text-rendering: geometricprecision; user-select: none; fill: rgb(255, 255, 255);">Reshape</text><title>10</title></g><g class="node-argument-list" transform="translate(0,23)"><path d="M0,0h75a0,0 0 0 1 0,0v15a5,5 0 0 1 -5,5h-65a5,5 0 0 1 -5,-5v-15a0,0 0 0 1 0,0z" style="stroke: rgb(0, 0, 0); fill: rgb(255, 255, 255); stroke-width: 0;"/><g class="node-argument"><rect rx="3" ry="3" x="3" y="3" width="69" height="14" style="fill: transparent;"/><text xml:space="preserve" x="6" y="14" style="font-family: -apple-system, BlinkMacSystemFont, &quot;Segoe WPC&quot;, &quot;Segoe UI&quot;, Ubuntu, &quot;Droid Sans&quot;, sans-serif, &quot;PingFang SC&quot;; font-size: 9px; font-weight: normal; text-rendering: geometricprecision; user-select: none;"><title>int32[2]</title><tspan style="font-weight: bold;">shape</tspan><tspan>〈2〉</tspan></text></g><line class="node" x1="0" x2="75" y1="0" y2="0" style="stroke: rgb(51, 51, 51); fill: none; stroke-width: 1px;"/></g><path class="node node-border" d="M5,0h65a5,5 0 0 1 5,5v33a5,5 0 0 1 -5,5h-65a5,5 0 0 1 -5,-5v-33a5,5 0 0 1 5,-5z" style="stroke: rgb(51, 51, 51); fill: none; stroke-width: 1px;"/></g><g id="node-id-15" class="node graph-node" style="" transform="translate(65.18359375,982)"><g class="node-item node-item-type node-item-type-layer" transform="translate(0,0)"><path d="M5,0h89.296875a5,5 0 0 1 5,5v18a0,0 0 0 1 0,0h-99.296875a0,0 0 0 1 0,0v-18a5,5 0 0 1 5,-5z" style="stroke: rgb(0, 0, 0); fill: rgb(51, 85, 136); stroke-width: 0;"/><text x="7" y="16" style="font-family: -apple-system, BlinkMacSystemFont, &quot;Segoe WPC&quot;, &quot;Segoe UI&quot;, Ubuntu, &quot;Droid Sans&quot;, sans-serif, &quot;PingFang SC&quot;; font-size: 11px; text-rendering: geometricprecision; user-select: none; fill: rgb(255, 255, 255);">FullyConnected</text><title>11</title></g><g class="node-argument-list" transform="translate(0,23)"><path d="M0,0h99.296875a0,0 0 0 1 0,0v34a0,0 0 0 1 0,0h-99.296875a0,0 0 0 1 0,0v-34a0,0 0 0 1 0,0z" style="stroke: rgb(0, 0, 0); fill: rgb(255, 255, 255); stroke-width: 0;"/><g class="node-argument"><rect rx="3" ry="3" x="3" y="3" width="93.296875" height="14" style="fill: transparent;"/><text xml:space="preserve" x="6" y="14" style="font-family: -apple-system, BlinkMacSystemFont, &quot;Segoe WPC&quot;, &quot;Segoe UI&quot;, Ubuntu, &quot;Droid Sans&quot;, sans-serif, &quot;PingFang SC&quot;; font-size: 9px; font-weight: normal; text-rendering: geometricprecision; user-select: none;"><title>int8[223,308]</title><tspan style="font-weight: bold;">weights</tspan><tspan>〈223×308〉</tspan></text></g><g class="node-argument"><rect rx="3" ry="3" x="3" y="17" width="93.296875" height="14" style="fill: transparent;"/><text xml:space="preserve" x="6" y="28" style="font-family: -apple-system, BlinkMacSystemFont, &quot;Segoe WPC&quot;, &quot;Segoe UI&quot;, Ubuntu, &quot;Droid Sans&quot;, sans-serif, &quot;PingFang SC&quot;; font-size: 9px; font-weight: normal; text-rendering: geometricprecision; user-select: none;"><title>int32[223]</title><tspan style="font-weight: bold;">bias</tspan><tspan>〈223〉</tspan></text></g><line class="node" x1="0" x2="99.296875" y1="0" y2="0" style="stroke: rgb(51, 51, 51); fill: none; stroke-width: 1px;"/></g><g class="node-item node-item-type node-item-type-activation" transform="translate(0,57)"><path d="M0,0h99.296875a0,0 0 0 1 0,0v18a5,5 0 0 1 -5,5h-89.296875a5,5 0 0 1 -5,-5v-18a0,0 0 0 1 0,0z" style="stroke: rgb(0, 0, 0); fill: rgb(112, 41, 33); stroke-width: 0;"/><text x="7" y="16" style="font-family: -apple-system, BlinkMacSystemFont, &quot;Segoe WPC&quot;, &quot;Segoe UI&quot;, Ubuntu, &quot;Droid Sans&quot;, sans-serif, &quot;PingFang SC&quot;; font-size: 11px; text-rendering: geometricprecision; user-select: none; fill: rgb(255, 255, 255);">Relu</text></g><line class="node" x1="0" x2="99.296875" y1="57" y2="57" style="stroke: rgb(51, 51, 51); fill: none; stroke-width: 1px;"/><path class="node node-border" d="M5,0h89.296875a5,5 0 0 1 5,5v70a5,5 0 0 1 -5,5h-89.296875a5,5 0 0 1 -5,-5v-70a5,5 0 0 1 5,-5z" style="stroke: rgb(51, 51, 51); fill: none; stroke-width: 1px;"/></g><g id="node-id-17" class="node graph-node" style="" transform="translate(67.61328125,1106)"><g class="node-item node-item-type node-item-type-layer" transform="translate(0,0)"><path d="M5,0h84.4375a5,5 0 0 1 5,5v18a0,0 0 0 1 0,0h-94.4375a0,0 0 0 1 0,0v-18a5,5 0 0 1 5,-5z" style="stroke: rgb(0, 0, 0); fill: rgb(51, 85, 136); stroke-width: 0;"/><text x="7" y="16" style="font-family: -apple-system, BlinkMacSystemFont, &quot;Segoe WPC&quot;, &quot;Segoe UI&quot;, Ubuntu, &quot;Droid Sans&quot;, sans-serif, &quot;PingFang SC&quot;; font-size: 11px; text-rendering: geometricprecision; user-select: none; fill: rgb(255, 255, 255);">FullyConnected</text><title>12</title></g><g class="node-argument-list" transform="translate(0,23)"><path d="M0,0h94.4375a0,0 0 0 1 0,0v34a0,0 0 0 1 0,0h-94.4375a0,0 0 0 1 0,0v-34a0,0 0 0 1 0,0z" style="stroke: rgb(0, 0, 0); fill: rgb(255, 255, 255); stroke-width: 0;"/><g class="node-argument"><rect rx="3" ry="3" x="3" y="3" width="88.4375" height="14" style="fill: transparent;"/><text xml:space="preserve" x="6" y="14" style="font-family: -apple-system, BlinkMacSystemFont, &quot;Segoe WPC&quot;, &quot;Segoe UI&quot;, Ubuntu, &quot;Droid Sans&quot;, sans-serif, &quot;PingFang SC&quot;; font-size: 9px; font-weight: normal; text-rendering: geometricprecision; user-select: none;"><title>int8[23,223]</title><tspan style="font-weight: bold;">weights</tspan><tspan>〈23×223〉</tspan></text></g><g class="node-argument"><rect rx="3" ry="3" x="3" y="17" width="88.4375" height="14" style="fill: transparent;"/><text xml:space="preserve" x="6" y="28" style="font-family: -apple-system, BlinkMacSystemFont, &quot;Segoe WPC&quot;, &quot;Segoe UI&quot;, Ubuntu, &quot;Droid Sans&quot;, sans-serif, &quot;PingFang SC&quot;; font-size: 9px; font-weight: normal; text-rendering: geometricprecision; user-select: none;"><title>int32[23]</title><tspan style="font-weight: bold;">bias</tspan><tspan>〈23〉</tspan></text></g><line class="node" x1="0" x2="94.4375" y1="0" y2="0" style="stroke: rgb(51, 51, 51); fill: none; stroke-width: 1px;"/></g><g class="node-item node-item-type node-item-type-activation" transform="translate(0,57)"><path d="M0,0h94.4375a0,0 0 0 1 0,0v18a5,5 0 0 1 -5,5h-84.4375a5,5 0 0 1 -5,-5v-18a0,0 0 0 1 0,0z" style="stroke: rgb(0, 0, 0); fill: rgb(112, 41, 33); stroke-width: 0;"/><text x="7" y="16" style="font-family: -apple-system, BlinkMacSystemFont, &quot;Segoe WPC&quot;, &quot;Segoe UI&quot;, Ubuntu, &quot;Droid Sans&quot;, sans-serif, &quot;PingFang SC&quot;; font-size: 11px; text-rendering: geometricprecision; user-select: none; fill: rgb(255, 255, 255);">Relu</text></g><line class="node" x1="0" x2="94.4375" y1="57" y2="57" style="stroke: rgb(51, 51, 51); fill: none; stroke-width: 1px;"/><path class="node node-border" d="M5,0h84.4375a5,5 0 0 1 5,5v70a5,5 0 0 1 -5,5h-84.4375a5,5 0 0 1 -5,-5v-70a5,5 0 0 1 5,-5z" style="stroke: rgb(51, 51, 51); fill: none; stroke-width: 1px;"/></g><g id="node-id-19" class="node graph-node" style="" transform="translate(70.45703125,1230)"><g class="node-item node-item-type node-item-type-layer" transform="translate(0,0)"><path d="M5,0h78.75a5,5 0 0 1 5,5v18a0,0 0 0 1 0,0h-88.75a0,0 0 0 1 0,0v-18a5,5 0 0 1 5,-5z" style="stroke: rgb(0, 0, 0); fill: rgb(51, 85, 136); stroke-width: 0;"/><text x="7" y="16" style="font-family: -apple-system, BlinkMacSystemFont, &quot;Segoe WPC&quot;, &quot;Segoe UI&quot;, Ubuntu, &quot;Droid Sans&quot;, sans-serif, &quot;PingFang SC&quot;; font-size: 11px; text-rendering: geometricprecision; user-select: none; fill: rgb(255, 255, 255);">FullyConnected</text><title>13</title></g><g class="node-argument-list" transform="translate(0,23)"><path d="M0,0h88.75a0,0 0 0 1 0,0v29a5,5 0 0 1 -5,5h-78.75a5,5 0 0 1 -5,-5v-29a0,0 0 0 1 0,0z" style="stroke: rgb(0, 0, 0); fill: rgb(255, 255, 255); stroke-width: 0;"/><g class="node-argument"><rect rx="3" ry="3" x="3" y="3" width="82.75" height="14" style="fill: transparent;"/><text xml:space="preserve" x="6" y="14" style="font-family: -apple-system, BlinkMacSystemFont, &quot;Segoe WPC&quot;, &quot;Segoe UI&quot;, Ubuntu, &quot;Droid Sans&quot;, sans-serif, &quot;PingFang SC&quot;; font-size: 9px; font-weight: normal; text-rendering: geometricprecision; user-select: none;"><title>int8[3,23]</title><tspan style="font-weight: bold;">weights</tspan><tspan>〈3×23〉</tspan></text></g><g class="node-argument"><rect rx="3" ry="3" x="3" y="17" width="82.75" height="14" style="fill: transparent;"/><text xml:space="preserve" x="6" y="28" style="font-family: -apple-system, BlinkMacSystemFont, &quot;Segoe WPC&quot;, &quot;Segoe UI&quot;, Ubuntu, &quot;Droid Sans&quot;, sans-serif, &quot;PingFang SC&quot;; font-size: 9px; font-weight: normal; text-rendering: geometricprecision; user-select: none;"><title>int32[3]</title><tspan style="font-weight: bold;">bias</tspan><tspan>〈3〉</tspan></text></g><line class="node" x1="0" x2="88.75" y1="0" y2="0" style="stroke: rgb(51, 51, 51); fill: none; stroke-width: 1px;"/></g><path class="node node-border" d="M5,0h78.75a5,5 0 0 1 5,5v47a5,5 0 0 1 -5,5h-78.75a5,5 0 0 1 -5,-5v-47a5,5 0 0 1 5,-5z" style="stroke: rgb(51, 51, 51); fill: none; stroke-width: 1px;"/></g><g id="node-id-20" class="node graph-node" style="" transform="translate(80.154541015625,1331)"><g class="node-item node-item-type node-item-type-quantization" transform="translate(0,0)"><path d="M5,0h59.35498046875a5,5 0 0 1 5,5v13a5,5 0 0 1 -5,5h-59.35498046875a5,5 0 0 1 -5,-5v-13a5,5 0 0 1 5,-5z" style="stroke: rgb(0, 0, 0); fill: rgb(80, 40, 0); stroke-width: 0;"/><text x="7" y="16" style="font-family: -apple-system, BlinkMacSystemFont, &quot;Segoe WPC&quot;, &quot;Segoe UI&quot;, Ubuntu, &quot;Droid Sans&quot;, sans-serif, &quot;PingFang SC&quot;; font-size: 11px; text-rendering: geometricprecision; user-select: none; fill: rgb(255, 255, 255);">Dequantize</text><title>14</title></g><path class="node node-border" d="M5,0h59.35498046875a5,5 0 0 1 5,5v13a5,5 0 0 1 -5,5h-59.35498046875a5,5 0 0 1 -5,-5v-13a5,5 0 0 1 5,-5z" style="stroke: rgb(51, 51, 51); fill: none; stroke-width: 1px;"/></g><g class="node" style="" transform="translate(71.703125,1398)"><g class="node-item graph-item-output" transform="translate(0,0)"><path d="M5,0h76.2578125a5,5 0 0 1 5,5v13a5,5 0 0 1 -5,5h-76.2578125a5,5 0 0 1 -5,-5v-13a5,5 0 0 1 5,-5z" style="stroke: rgb(0, 0, 0); fill: rgb(238, 238, 238); stroke-width: 0;"/><text x="7" y="16" style="font-family: -apple-system, BlinkMacSystemFont, &quot;Segoe WPC&quot;, &quot;Segoe UI&quot;, Ubuntu, &quot;Droid Sans&quot;, sans-serif, &quot;PingFang SC&quot;; font-size: 11px; text-rendering: geometricprecision; user-select: none;">quant_dense_2</text><title>float32[-1,3]</title></g><path class="node node-border" d="M5,0h76.2578125a5,5 0 0 1 5,5v13a5,5 0 0 1 -5,5h-76.2578125a5,5 0 0 1 -5,-5v-13a5,5 0 0 1 5,-5z" style="stroke: rgb(51, 51, 51); fill: none; stroke-width: 1px;"/></g></g><g id="tunnel-edges" class="tunnel-edges"/></g></svg>